<svg width="2000" height="2000" viewBox="0 0 2000 2000" fill="none" xmlns="http://www.w3.org/2000/svg">
<circle cx="1000" cy="1000" r="1000" fill="#FEFEFE"/>
<path d="M872.481 105.517C646.82 138.955 448.239 247.773 308.894 414.4C82.105 686.443 35.8446 1063.9 190.422 1386.96C298.739 1612.53 486.601 1779.72 721.288 1858.5C936.794 1931.04 1195.18 1912.34 1398.83 1809.19C1691.63 1661.83 1872.16 1386.96 1897.54 1050.3C1908.83 896.711 1881.18 745.953 1815.74 604.83C1735.07 430.836 1575.98 270.443 1401.65 187.13C1242.56 111.184 1043.98 80.5792 872.481 105.517ZM966.13 349.789V528.318L925.511 524.917C847.094 518.116 795.192 510.182 741.598 496.58C712.262 488.645 686.875 481.844 685.747 480.144C681.798 476.176 706.62 430.836 744.983 373.026C811.553 272.71 916.485 174.094 959.36 171.261C964.438 170.694 966.13 209.8 966.13 349.789ZM1100.4 198.465C1143.27 227.37 1200.82 290.28 1243.13 354.323C1283.18 413.833 1317.6 480.71 1310.83 484.678C1289.39 498.28 1046.24 532.852 1032.7 524.351C1029.88 522.65 1028.19 442.171 1028.19 345.255V168.993L1047.93 172.394C1058.09 174.094 1082.35 185.996 1100.4 198.465ZM768.677 225.669C734.264 264.776 677.285 349.223 644.564 409.866C631.588 434.236 617.485 454.073 613.535 454.073C588.713 454.073 456.137 378.694 460.086 366.792C463.471 356.024 548.658 297.648 602.252 268.743C644 246.639 776.011 194.498 792.936 193.931C795.756 193.364 784.473 208.1 768.677 225.669ZM1383.04 258.541C1429.3 281.778 1516.74 340.154 1534.79 359.424L1548.33 373.593L1522.38 391.163C1497 408.732 1414.07 450.105 1392.06 456.34C1382.47 459.174 1377.96 453.506 1363.86 424.035C1344.11 383.228 1281.49 285.179 1242 234.737C1226.77 214.901 1214.36 197.898 1214.36 196.765C1214.36 191.097 1345.8 239.271 1383.04 258.541ZM455.573 456.907C486.601 473.909 528.913 495.446 549.786 503.947C570.66 512.449 588.149 521.517 588.149 524.917C588.149 527.751 583.071 543.62 577.43 559.49C548.658 634.302 529.477 744.253 522.707 868.373L518.758 939.784L532.298 943.185C561.634 951.119 565.583 948.852 565.583 922.781C565.583 876.307 577.994 796.394 596.611 723.283C615.228 650.171 647.949 552.689 655.283 548.155C656.975 547.021 684.054 551.555 715.083 559.49C745.547 566.858 806.475 577.059 849.915 582.16C893.919 587.261 937.922 592.362 948.077 593.495L966.13 596.329V660.939V726.116H999.415H1032.14L1029.31 675.675C1025.37 600.296 1026.49 597.462 1068.81 592.928C1149.48 584.427 1225.64 571.392 1282.62 556.656L1343.55 540.787L1363.86 595.195C1399.4 687.01 1434.38 848.536 1434.38 918.814V941.484H1457.51H1481.2L1477.25 860.438C1474.99 816.231 1469.35 753.321 1464.84 720.449C1456.38 663.773 1430.43 570.258 1413.5 537.386C1405.6 521.517 1405.6 521.517 1429.86 511.882C1443.4 506.781 1488.53 485.811 1530.28 464.274L1606.44 426.302L1622.8 441.604C1645.93 463.141 1701.22 539.086 1728.86 586.694C1774.56 664.907 1822.51 809.997 1814.61 844.002C1801.07 899.544 1755.94 950.553 1693.89 980.591L1651.57 1000.99H1502.07C1330.01 1000.99 1331.7 1000.99 1203.07 1060.5C1099.83 1108.11 1084.04 1113.21 1016.34 1116.05C941.872 1118.88 897.868 1108.11 797.449 1060.5C665.437 998.727 676.156 1000.99 492.243 1000.99C337.101 1000.99 330.332 1000.43 306.073 988.525C271.096 970.956 220.322 918.814 198.884 878.008L180.831 844.002L192.679 792.427C207.347 730.084 244.016 636.569 277.301 579.893C312.843 518.116 384.49 425.735 396.337 425.735C398.03 425.735 425.109 439.904 455.573 456.907ZM1827.59 1044.63C1823.64 1120.58 1807.84 1199.93 1780.76 1281.54C1758.2 1350.12 1746.92 1367.12 1753.69 1324.05C1755.94 1308.18 1758.2 1241.3 1758.2 1175.56V1054.84L1792.05 1018.56C1811.23 998.727 1827.59 982.291 1828.72 981.724C1829.85 981.158 1829.28 1010.06 1827.59 1044.63ZM188.165 1001.56C195.499 1010.06 211.296 1023.66 223.143 1032.73L245.145 1048.6L245.709 1196.53C246.273 1277.57 246.273 1343.88 245.709 1343.88C237.247 1343.88 196.064 1213.53 185.345 1153.45C175.19 1096.21 165.599 986.825 170.677 986.825C172.933 986.825 180.267 993.626 188.165 1001.56ZM654.154 1086.01C774.883 1114.35 864.583 1206.16 905.202 1342.18C926.639 1414.73 926.075 1416.43 897.304 1419.83C798.013 1432.3 766.42 1437.4 726.366 1448.73C701.543 1455.53 677.285 1462.9 672.207 1465.17C664.309 1468.57 659.796 1460.07 645.128 1416.43C624.254 1352.38 602.252 1260.57 593.79 1199.36C583.071 1123.41 584.764 1127.38 561.069 1129.65C541.888 1131.35 540.196 1133.05 538.503 1151.18C533.426 1200.49 573.481 1430.03 596.611 1486.71C599.432 1493.51 598.303 1496.91 592.662 1496.91C588.149 1496.91 544.145 1516.74 495.628 1541.11L406.492 1585.32L393.517 1568.32C372.079 1538.85 363.616 1518.44 359.667 1482.74L356.283 1448.73L386.183 1481.6C414.954 1512.78 417.211 1514.48 431.315 1508.24L445.983 1501.44L420.596 1453.27C392.388 1400.56 373.771 1345.58 373.771 1315.54C373.771 1245.27 429.622 1146.65 497.884 1096.78C522.143 1078.64 525.528 1077.51 571.224 1077.51C597.739 1077.51 634.973 1081.47 654.154 1086.01ZM1530.28 1122.28C1580.49 1173.29 1609.83 1226.56 1621.11 1287.21C1626.75 1320.08 1626.19 1329.71 1616.03 1370.52C1609.83 1396.02 1595.72 1435.7 1585 1458.93L1565.26 1501.44L1579.36 1507.68C1591.77 1513.34 1595.16 1511.64 1621.67 1482.74C1637.47 1465.17 1651.57 1452.13 1652.7 1453.83C1657.78 1458.93 1618.85 1556.98 1606.44 1570.02L1593.47 1583.05L1535.36 1552.45C1503.2 1534.88 1459.76 1513.91 1438.32 1504.84C1410.12 1492.94 1401.09 1486.71 1403.91 1479.9C1416.32 1448.73 1440.02 1334.25 1447.92 1267.37C1464.84 1120.01 1465.4 1135.88 1445.09 1131.92C1415.19 1126.25 1411.81 1127.38 1411.81 1144.95C1411.81 1207.29 1352.01 1454.4 1335.08 1461.2C1331.14 1462.34 1310.83 1458.37 1289.39 1452.13C1268.52 1445.33 1220.56 1436.26 1183.33 1431.16C1146.09 1426.06 1107.17 1420.96 1097.01 1419.26C1078.4 1416.99 1077.83 1416.43 1081.78 1396.02C1097.01 1308.74 1134.25 1232.23 1186.15 1178.96C1254.98 1109.24 1328.32 1079.21 1436.63 1078.07L1486.84 1077.51L1530.28 1122.28ZM950.898 1547.92C956.539 1581.35 962.181 1655.6 964.438 1717.38L967.823 1826.76L954.283 1822.79C913.1 1809.76 849.351 1764.98 805.347 1716.81C768.113 1676.57 734.264 1626.69 704.364 1566.05L684.054 1525.25L697.594 1520.14C749.496 1499.74 830.17 1486.71 889.97 1487.27L940.743 1488.41L950.898 1547.92ZM1170.35 1490.67C1217.74 1498.61 1291.08 1519.58 1302.93 1528.65C1312.52 1536.01 1311.95 1538.28 1291.08 1577.39C1234.1 1684.5 1133.12 1786.52 1049.06 1821.66L1028.19 1830.73L1031.01 1781.42C1032.7 1754.22 1034.96 1705.47 1036.65 1672.6C1038.91 1618.76 1051.88 1520.71 1059.78 1495.21C1062.04 1487.27 1069.37 1485.57 1100.4 1485.57C1121.27 1485.57 1152.86 1487.84 1170.35 1490.67ZM646.256 1600.06C680.669 1671.47 724.109 1736.65 760.779 1772.92C777.703 1789.35 790.115 1802.96 788.987 1802.96C774.319 1802.96 671.079 1763.85 630.46 1743.45C584.764 1719.64 510.86 1672.6 475.318 1644.83C461.215 1633.5 461.215 1633.5 472.498 1624.43C481.524 1617.63 615.228 1547.92 619.741 1547.92C620.305 1547.92 632.152 1571.72 646.256 1600.06ZM1446.79 1578.52C1476.69 1592.12 1510.54 1609.13 1521.82 1615.93L1543.26 1628.96L1524.08 1647.1C1474.99 1691.87 1348.06 1760.45 1261.18 1789.35C1194.61 1811.46 1181.64 1813.16 1205.89 1797.86C1247.64 1771.78 1301.24 1699.24 1348.62 1606.29C1364.42 1575.12 1378.52 1553.58 1383.6 1553.58C1388.12 1553.58 1416.32 1564.92 1446.79 1578.52Z" fill="#0A2B52"/>
<path d="M322.998 718.182C282.379 735.751 260.941 770.324 260.941 817.931C261.505 867.239 286.892 909.746 324.69 923.915C350.641 934.117 395.773 931.283 422.852 918.247C496.192 882.542 493.371 756.721 417.775 717.048C398.03 706.847 347.82 707.413 322.998 718.182Z" fill="#0A2B52"/>
<path d="M1583.31 719.882C1524.64 746.52 1505.46 829.833 1544.95 886.509C1566.39 917.68 1592.34 930.149 1633.52 930.149C1668.5 930.149 1689.37 922.215 1709.12 900.678C1758.76 847.403 1744.09 749.92 1681.47 717.048C1660.04 705.713 1610.95 707.413 1583.31 719.882Z" fill="#0A2B52"/>
<path d="M939.615 808.296C902.381 826.999 882.071 856.47 877.558 897.844C865.711 1011.2 959.924 1081.47 1056.96 1031.6C1084.6 1018 1117.32 978.323 1121.84 953.953C1133.68 892.176 1098.71 819.064 1049.06 800.361C1019.72 789.026 971.207 792.994 939.615 808.296Z" fill="#0A2B52"/>
</svg>
