<svg width="2100" height="612" viewBox="0 0 2100 612" fill="none" xmlns="http://www.w3.org/2000/svg">
<path d="M261.682 2.88497C185.238 14.2125 117.968 51.075 70.7638 107.521C-6.06203 199.677 -21.733 327.544 30.6309 436.979C67.3239 513.392 130.963 570.03 210.465 596.717C283.468 621.292 370.996 614.956 439.987 580.013C539.172 530.095 600.327 436.979 608.927 322.936C612.749 270.906 603.385 219.836 581.216 172.03C553.888 113.088 499.995 58.7547 440.942 30.5318C387.049 4.80489 319.779 -5.56269 261.682 2.88497ZM293.406 85.6336V146.111L279.646 144.959C253.082 142.655 235.5 139.967 217.345 135.36C207.407 132.672 198.807 130.368 198.425 129.792C197.087 128.448 205.496 113.088 218.491 93.5053C241.042 59.5227 276.588 26.116 291.113 25.1561C292.833 24.9641 293.406 38.2115 293.406 85.6336ZM338.89 34.3717C353.414 44.1633 372.907 65.4744 387.241 87.1695C400.809 107.329 412.467 129.984 410.174 131.328C402.912 135.936 320.544 147.647 315.957 144.767C315.001 144.191 314.428 116.928 314.428 84.0977V24.3881L321.117 25.54C324.557 26.116 332.774 30.1479 338.89 34.3717ZM226.518 43.5873C214.86 56.8348 195.558 85.4416 184.474 105.985C180.078 114.24 175.301 120.96 173.963 120.96C165.554 120.96 120.643 95.4252 121.981 91.3934C123.128 87.7455 151.985 67.9703 170.141 58.1787C184.283 50.691 229.002 33.0277 234.735 32.8357C235.691 32.6438 231.869 37.6356 226.518 43.5873ZM434.636 54.7229C450.307 62.5945 479.929 82.3697 486.044 88.8975L490.631 93.6973L481.84 99.649C473.24 105.601 445.147 119.616 437.693 121.728C434.445 122.688 432.916 120.768 428.138 110.785C421.449 96.9611 400.236 63.7465 386.858 46.6592C381.698 39.9395 377.494 34.1797 377.494 33.7957C377.494 31.8758 422.022 48.1951 434.636 54.7229ZM120.452 121.92C130.963 127.68 145.296 134.976 152.367 137.855C159.438 140.735 165.363 143.807 165.363 144.959C165.363 145.919 163.643 151.295 161.732 156.671C151.985 182.014 145.488 219.26 143.194 261.306L141.856 285.497L146.443 286.649C156.381 289.337 157.719 288.569 157.719 279.738C157.719 263.994 161.923 236.923 168.23 212.156C174.536 187.389 185.62 154.367 188.105 152.831C188.678 152.447 197.851 153.983 208.362 156.671C218.682 159.167 239.322 162.622 254.038 164.35C268.944 166.078 283.851 167.806 287.291 168.19L293.406 169.15V191.037V213.116H304.681H315.766L314.81 196.029C313.472 170.494 313.855 169.534 328.188 167.998C355.516 165.118 381.316 160.703 400.618 155.711L421.258 150.335L428.138 168.766C440.178 199.869 452.027 254.587 452.027 278.394V286.073H459.862H467.889L466.551 258.619C465.786 243.643 463.875 222.332 462.346 211.196C459.48 191.997 450.689 160.319 444.956 149.183C442.28 143.807 442.28 143.807 450.498 140.543C455.084 138.815 470.373 131.712 484.515 124.416L510.315 111.553L515.857 116.736C523.692 124.032 542.421 149.759 551.786 165.886C567.265 192.381 583.51 241.531 580.834 253.051C576.248 271.866 560.959 289.145 539.937 299.321L525.604 306.233H474.96C416.671 306.233 417.245 306.233 373.672 326.392C338.699 342.519 333.348 344.247 310.415 345.207C285.188 346.167 270.282 342.519 236.264 326.392C191.545 305.465 195.176 306.233 132.874 306.233C80.3193 306.233 78.026 306.041 69.8083 302.009C57.9595 296.057 40.7597 278.394 33.4976 264.57L27.3821 253.051L31.3954 235.579C36.3642 214.46 48.7863 182.782 60.0617 163.582C72.1016 142.655 96.3725 111.361 100.386 111.361C100.959 111.361 110.132 116.16 120.452 121.92ZM585.23 321.016C583.892 346.743 578.541 373.622 569.368 401.269C561.723 424.5 557.901 430.26 560.194 415.668C560.959 410.292 561.723 387.637 561.723 365.366V324.472L573.19 312.184C579.687 305.465 585.23 299.897 585.612 299.705C585.994 299.513 585.803 309.304 585.23 321.016ZM29.8665 306.425C32.3509 309.304 37.702 313.912 41.7153 316.984L49.1685 322.36L49.3596 372.47C49.5507 399.925 49.5507 422.388 49.3596 422.388C46.493 422.388 32.542 378.23 28.9109 357.878C25.471 338.487 22.2221 301.433 23.9421 301.433C24.7065 301.433 27.191 303.737 29.8665 306.425ZM187.723 335.031C228.62 344.631 259.006 375.734 272.766 421.812C280.028 446.387 279.837 446.963 270.091 448.115C236.455 452.339 225.753 454.067 212.185 457.906C203.776 460.21 195.558 462.706 193.838 463.474C191.163 464.626 189.634 461.746 184.665 446.963C177.594 425.268 170.141 394.165 167.274 373.43C163.643 347.703 164.216 349.047 156.19 349.815C149.692 350.391 149.119 350.967 148.545 357.111C146.825 373.814 160.394 451.571 168.23 470.77C169.185 473.074 168.803 474.226 166.892 474.226C165.363 474.226 150.456 480.945 134.021 489.201L103.826 504.177L99.4302 498.417C92.1681 488.433 89.3014 481.521 87.9637 469.426L86.817 457.906L96.9458 469.042C106.692 479.602 107.457 480.178 112.235 478.066L117.203 475.762L108.603 459.442C99.048 441.587 92.7414 422.964 92.7414 412.788C92.7414 388.981 111.661 355.575 134.785 338.679C143.003 332.536 144.15 332.152 159.63 332.152C168.612 332.152 181.225 333.495 187.723 335.031ZM484.515 347.319C501.524 364.598 511.462 382.645 515.284 403.189C517.195 414.324 517.004 417.588 513.564 431.411C511.462 440.051 506.684 453.491 503.053 461.362L496.364 475.762L501.142 477.874C505.346 479.794 506.493 479.218 515.475 469.426C520.826 463.474 525.604 459.058 525.986 459.634C527.706 461.362 514.519 494.577 510.315 498.993L505.919 503.409L486.235 493.041C475.342 487.089 460.627 479.986 453.364 476.914C443.809 472.882 440.751 470.77 441.707 468.466C445.911 457.906 453.938 419.124 456.613 396.469C462.346 346.551 462.538 351.927 455.658 350.583C445.529 348.663 444.382 349.047 444.382 354.999C444.382 376.118 424.125 459.826 418.391 462.13C417.054 462.514 410.174 461.17 402.912 459.058C395.841 456.754 379.596 453.683 366.983 451.955C354.37 450.227 341.183 448.499 337.743 447.923C331.437 447.155 331.246 446.963 332.583 440.051C337.743 410.484 350.357 384.565 367.939 366.518C391.254 342.903 416.098 332.728 452.791 332.344L469.8 332.152L484.515 347.319ZM288.246 491.505C290.157 502.833 292.068 527.984 292.833 548.911L293.979 585.965L289.393 584.621C275.442 580.205 253.846 565.038 238.94 548.719C226.327 535.087 214.86 518.192 204.731 497.649L197.851 483.825L202.438 482.097C220.02 475.186 247.349 470.77 267.606 470.962L284.806 471.346L288.246 491.505ZM362.588 472.114C378.641 474.802 403.485 481.905 407.498 484.977C410.747 487.473 410.556 488.241 403.485 501.489C384.183 537.775 349.974 572.334 321.499 584.237L314.428 587.309L315.384 570.606C315.957 561.39 316.721 544.879 317.295 533.743C318.059 515.504 322.455 482.289 325.13 473.65C325.895 470.962 328.379 470.386 338.89 470.386C345.961 470.386 356.663 471.154 362.588 472.114ZM185.047 509.168C196.705 533.359 211.42 555.438 223.842 567.726C229.576 573.294 233.78 577.902 233.398 577.902C228.429 577.902 193.456 564.654 179.696 557.742C164.216 549.679 139.181 533.743 127.141 524.336C122.363 520.496 122.363 520.496 126.185 517.424C129.243 515.12 174.536 491.505 176.065 491.505C176.256 491.505 180.269 499.569 185.047 509.168ZM456.231 501.873C466.36 506.48 477.826 512.24 481.649 514.544L488.911 518.96L482.413 525.104C465.786 540.271 422.787 563.502 393.356 573.294C370.805 580.781 366.41 581.357 374.627 576.174C388.769 567.342 406.925 542.767 422.978 511.28C428.329 500.721 433.107 493.425 434.827 493.425C436.356 493.425 445.911 497.265 456.231 501.873Z" fill="#0A2B52"/>
<path d="M75.5415 210.428C61.7817 216.38 54.5195 228.092 54.5195 244.219C54.7106 260.922 63.3106 275.322 76.1149 280.122C84.9059 283.577 100.195 282.618 109.368 278.202C134.212 266.106 133.256 223.484 107.648 210.044C100.959 206.589 83.9503 206.781 75.5415 210.428Z" fill="#0A2B52"/>
<path d="M502.479 211.004C482.604 220.028 476.106 248.251 489.484 267.45C496.746 278.01 505.537 282.234 519.488 282.234C531.337 282.234 538.408 279.546 545.097 272.25C561.914 254.203 556.946 221.18 535.732 210.044C528.47 206.205 511.844 206.781 502.479 211.004Z" fill="#0A2B52"/>
<path d="M284.424 240.955C271.811 247.291 264.931 257.275 263.402 271.29C259.389 309.688 291.304 333.495 324.175 316.6C333.539 311.992 344.623 298.553 346.152 290.297C350.165 269.37 338.317 244.603 321.499 238.267C311.561 234.427 295.126 235.771 284.424 240.955Z" fill="#0A2B52"/>
<path d="M779.779 113.462C765.828 118.262 757.42 125.558 751.304 137.653C746.909 147.061 746.335 149.941 747.1 161.652C748.82 184.308 758.757 194.867 791.246 208.307C809.975 215.986 820.486 224.626 823.161 234.801C831.188 264.56 793.157 282.8 768.313 260.912C762.006 255.345 750.54 234.993 750.54 229.426C750.54 228.274 748.629 227.314 746.526 227.506C742.513 227.698 742.513 228.274 743.66 248.049C744.806 263.6 745.762 268.784 748.246 270.704C759.14 278.96 794.686 283.184 812.268 278C839.979 269.936 856.032 244.785 849.916 219.058C846.285 203.891 835.201 194.099 804.815 178.74C771.944 162.228 766.019 153.205 775.384 134.966C779.779 126.326 788.761 121.334 800.228 121.334C816.09 121.334 827.748 130.934 833.863 148.981C836.157 155.317 837.876 157.813 840.552 157.813C844.183 157.813 844.183 156.853 843.036 139.957C841.699 118.838 840.361 117.11 821.25 112.886C804.241 108.855 792.201 109.047 779.779 113.462Z" fill="#0A2B52"/>
<path d="M1252.77 111.159C1248.19 111.927 1246.85 114.039 1240.54 130.55C1236.72 140.725 1228.12 162.997 1221.62 179.892C1215.13 196.787 1205.57 221.554 1200.6 234.994C1190.86 261.297 1185.5 269.168 1177.67 269.168C1173.85 269.168 1172.89 270.128 1172.89 273.968V278.768H1198.88C1224.49 278.768 1224.68 278.768 1224.11 274.544C1223.73 271.472 1221.81 269.936 1217.61 268.976C1205.38 266.48 1205 264.368 1212.26 239.793L1217.42 223.09H1245.7H1273.8L1279.53 238.833C1282.59 247.665 1285.65 256.689 1286.41 258.801C1288.13 264.368 1283.16 269.168 1275.9 269.168C1271.31 269.168 1270.36 269.936 1270.36 273.968V278.768H1302.65C1333.61 278.768 1334.95 278.576 1335.91 274.736C1336.67 272.24 1335.91 270.512 1333.8 269.936C1319.85 265.52 1321.57 268.976 1285.45 175.476C1271.5 139.381 1259.46 110.007 1258.89 110.007C1258.32 110.199 1255.64 110.775 1252.77 111.159ZM1257.17 180.276L1267.87 208.691L1256.79 209.267C1250.48 209.651 1240.54 209.651 1234.24 209.267L1223.15 208.691L1233.66 180.276C1239.4 164.724 1244.56 152.053 1245.32 152.053C1246.09 152.053 1251.44 164.724 1257.17 180.276Z" fill="#0A2B52"/>
<path d="M1076 114.998C1075.43 116.918 1072.56 124.406 1069.69 131.894C1066.83 139.189 1055.55 168.564 1044.85 197.171C1034.15 225.586 1024.02 251.505 1022.49 254.769C1018.09 263.6 1012.17 269.168 1007.2 269.168C1003.76 269.168 1002.8 270.128 1002.8 273.968V278.768H1028.6H1054.4V273.968C1054.4 270.128 1053.45 269.168 1049.43 269.168C1042.36 269.168 1037.2 265.712 1037.2 260.913C1037.2 258.609 1039.5 249.201 1042.17 239.793L1047.33 223.09H1075.23H1103.14L1109.44 240.177C1112.69 249.393 1115.56 258.993 1115.56 261.105C1115.56 265.52 1110.4 269.168 1104.28 269.168C1101.22 269.168 1100.27 270.32 1100.27 273.968V278.768H1132.76H1165.25V274.16C1165.25 270.704 1163.91 269.36 1159.7 268.592C1156.65 268.016 1152.44 264.944 1150.53 262.065C1147.28 257.265 1134.1 225.01 1100.08 137.078L1090.33 111.735H1083.83C1079.25 111.735 1076.76 112.695 1076 114.998ZM1086.51 180.468C1092.05 194.675 1096.45 206.963 1096.45 207.923C1096.45 208.883 1086.51 209.651 1074.28 209.651C1053.83 209.651 1052.11 209.459 1053.45 206.195C1054.02 204.467 1058.42 192.947 1063 180.852C1074.28 150.517 1073.9 151.669 1075.43 153.397C1076.19 154.165 1081.16 166.452 1086.51 180.468Z" fill="#0A2B52"/>
<path d="M868.454 121.718C867.69 126.326 866.734 135.734 865.97 142.837C864.823 155.701 864.823 155.893 869.41 155.893C873.423 155.893 874.569 154.357 877.245 145.717C882.214 129.59 887.183 126.326 906.485 125.366L922.538 124.79V193.139C922.538 258.993 922.347 261.681 918.716 265.328C916.613 267.44 912.409 269.168 909.16 269.168C904.382 269.168 903.427 269.936 903.427 273.968V278.768H937.827H972.226V273.968C972.226 269.936 971.271 269.168 966.493 269.168C963.244 269.168 959.04 267.44 956.938 265.328C953.306 261.681 953.115 258.993 953.115 193.331V125.174H966.493C974.711 125.174 982.164 126.326 985.413 128.054C990.955 130.934 996.306 139.765 998.217 149.941C999.173 154.741 1000.51 155.893 1004.33 155.893C1009.11 155.893 1009.11 155.701 1007.77 144.181C1007.2 137.654 1006.63 128.054 1006.63 123.062V113.655H938.018H869.41L868.454 121.718Z" fill="#0A2B52"/>
<path d="M1352.53 117.494C1352.53 120.182 1354.64 121.718 1360.18 123.254C1373.75 126.902 1373.56 126.134 1373.56 196.787V259.761L1368.78 264.368C1365.91 267.44 1361.9 269.168 1358.27 269.168C1353.49 269.168 1352.53 269.936 1352.53 273.968V278.768H1387.12C1421.52 278.768 1421.52 278.768 1420.95 274.544C1420.57 271.664 1418.47 269.936 1414.26 268.784C1403.56 266.096 1402.22 261.872 1402.22 232.306V205.811H1407.19C1415.79 205.811 1419.42 209.459 1437.39 237.105C1447.13 252.081 1457.26 266.288 1459.75 268.592C1468.73 276.848 1481.72 280.112 1502.17 279.152C1507.71 278.768 1509.24 278 1509.24 275.12C1509.24 272.432 1507.33 271.088 1502.55 270.32C1494.53 268.784 1483.83 256.881 1469.3 233.266C1463.57 224.05 1456.31 212.53 1453.44 207.923C1450.38 203.315 1448.09 199.475 1448.47 199.283C1448.85 199.091 1452.67 197.363 1457.07 195.443C1466.24 191.411 1477.52 180.276 1480.39 172.596C1483.63 163.764 1482.87 147.061 1478.86 138.997C1468.15 118.07 1453.06 113.654 1392.28 113.654C1354.06 113.654 1352.53 113.846 1352.53 117.494ZM1436.62 129.398C1447.51 136.886 1450.76 143.029 1451.53 157.429C1452.67 182.004 1441.59 193.907 1415.41 195.827L1402.22 196.787V163.188C1402.22 139.765 1402.99 129.014 1404.52 127.478C1405.85 126.134 1411.97 125.174 1418.66 125.174C1427.64 125.174 1431.84 126.134 1436.62 129.398Z" fill="#0A2B52"/>
<path d="M1524.91 117.878C1525.3 120.95 1527.21 122.486 1531.98 123.446C1544.98 126.134 1544.6 124.214 1545.17 195.059C1545.74 254.385 1545.36 259.185 1542.3 263.216C1540.39 265.712 1535.81 268.208 1532.18 268.976C1527.21 269.936 1525.3 271.472 1524.91 274.544L1524.34 278.768H1583.58H1643.02L1643.97 274.352C1644.55 272.048 1645.89 263.984 1646.84 256.689C1647.99 249.201 1649.52 241.329 1650.09 238.833C1650.85 235.186 1650.28 234.61 1646.08 234.61C1642.83 234.61 1641.11 235.57 1641.11 237.49C1641.11 242.481 1634.23 254.385 1627.73 260.529C1622.38 265.712 1620.28 266.288 1606.52 267.056C1588.94 267.824 1583.2 266.672 1578.04 261.489C1574.41 257.841 1574.22 254.769 1574.22 194.483C1574.22 125.366 1574.03 126.518 1585.3 124.022C1594.48 122.102 1595.24 121.526 1595.24 117.494C1595.24 113.847 1594.1 113.655 1559.7 113.655H1524.34L1524.91 117.878Z" fill="#0A2B52"/>
<path d="M1670.16 117.878C1670.54 120.95 1672.45 122.486 1676.85 123.446C1689.46 125.942 1688.89 122.87 1688.89 196.403V263.216L1684.68 266.096C1682.39 267.824 1677.99 269.168 1675.13 269.168C1670.73 269.168 1669.77 269.936 1669.77 273.968V278.768H1728.83H1788.07L1789.98 268.592C1790.94 263.216 1792.28 255.153 1793.04 250.929C1793.61 246.705 1794.76 241.329 1795.33 238.833C1796.1 235.378 1795.52 234.61 1791.51 234.61C1787.69 234.61 1786.35 235.762 1785.4 240.177C1783.68 248.049 1774.12 260.721 1767.43 264.368C1760.74 267.632 1737.81 268.4 1729.78 265.328C1719.65 261.297 1719.65 261.489 1719.46 193.715C1719.46 133.43 1719.65 130.742 1723.29 127.094C1725.39 124.982 1729.59 123.254 1732.84 123.254C1737.62 123.254 1738.57 122.486 1738.57 118.454V113.655H1703.98H1669.58L1670.16 117.878Z" fill="#0A2B52"/>
<path d="M1813.11 117.302C1813.11 121.142 1816.55 123.254 1822.66 123.254C1824.57 123.254 1828.01 125.558 1830.12 128.246C1833.94 133.238 1834.13 135.542 1834.13 196.979C1834.13 267.824 1834.32 266.864 1821.52 268.976C1815.78 269.936 1813.87 271.088 1813.49 274.544L1812.92 278.768H1873.69H1934.65L1937.9 258.993C1941.91 234.994 1941.91 234.61 1937.9 234.802C1935.61 234.802 1932.36 239.025 1928.73 246.705C1920.32 264.368 1914.78 267.248 1891.08 267.248C1873.5 267.248 1871.78 266.864 1867.57 262.448C1862.99 258.033 1862.79 257.073 1862.79 228.85V200.051H1879.99C1899.87 200.051 1905.41 202.355 1908.66 212.723C1910.19 217.138 1912.1 219.25 1914.59 219.25C1918.22 219.25 1918.41 217.906 1918.03 194.291C1917.83 169.716 1917.83 169.332 1913.44 169.332C1910 169.332 1908.85 170.676 1907.9 176.052C1905.99 186.228 1901.02 188.531 1880.57 188.531H1862.79V158.773C1862.79 123.83 1861.84 125.174 1886.11 125.174C1906.75 125.174 1913.44 128.438 1920.7 141.877C1928.54 156.853 1931.59 155.509 1931.59 137.078C1931.59 129.014 1931.02 120.374 1930.45 117.878L1929.3 113.655H1871.2C1815.4 113.655 1813.11 113.847 1813.11 117.302Z" fill="#0A2B52"/>
<path d="M1959.69 114.998C1959.11 115.958 1958.16 125.366 1957.39 136.118L1956.06 155.893H1960.64C1964.46 155.893 1965.61 154.357 1967.52 147.061C1969.05 141.685 1972.49 135.542 1976.31 131.702C1982.62 125.366 1983.38 125.174 1997.91 125.174H2012.82L2012.24 193.715C2011.86 260.913 2011.67 262.448 2007.85 265.712C2005.55 267.632 2001.35 269.168 1998.29 269.168C1993.7 269.168 1992.75 269.936 1992.75 273.968V278.768H2028.3H2063.65L2063.08 274.352C2062.7 271.088 2060.98 269.936 2056.39 269.552C2052.57 269.168 2048.74 267.056 2046.26 263.984C2042.63 259.185 2042.44 256.497 2042.44 191.987V124.79L2058.49 125.366C2077.79 126.326 2082.95 129.782 2087.54 145.717C2090.02 154.549 2091.17 155.893 2095.37 155.893C2099.39 155.893 2099.96 155.317 2099.01 151.477C2098.43 149.173 2097.86 139.765 2097.86 130.358V113.655H2029.25C1991.41 113.655 1960.07 114.231 1959.69 114.998Z" fill="#0A2B52"/>
<path d="M1521.66 338.093C1505.61 342.125 1494.91 353.453 1492.81 369.388C1487.84 405.099 1532.37 425.258 1557.4 398.571C1576.13 378.22 1565.43 344.813 1537.91 338.477C1533.13 337.325 1528.93 336.557 1528.35 336.557C1527.78 336.749 1524.91 337.325 1521.66 338.093ZM1539.25 351.725C1556.26 362.092 1557.4 386.091 1541.35 395.883C1533.13 400.875 1524.72 400.683 1516.7 395.307C1501.79 385.323 1503.32 359.02 1519.18 351.149C1527.4 346.925 1531.79 347.117 1539.25 351.725Z" fill="#0A2B52"/>
<path d="M789.526 340.205C779.397 344.237 773.664 361.132 779.779 369.196C782.837 373.228 791.628 377.644 802.139 380.524C812.841 383.403 815.517 385.515 815.517 391.275C815.517 400.107 804.432 402.027 791.246 395.691C783.219 391.851 782.646 391.659 779.206 394.923C773.855 399.723 774.428 401.067 783.028 405.483C805.388 417.002 828.894 409.13 828.894 390.123C828.894 377.836 822.97 373.036 800.801 367.084C786.659 363.436 787.615 349.805 801.948 349.805C805.77 349.805 811.312 351.149 814.37 352.685C819.339 355.373 820.295 355.373 823.543 352.493C828.512 347.885 827.939 346.541 819.339 342.125C811.503 338.093 796.979 337.133 789.526 340.205Z" fill="#0A2B52"/>
<path d="M844.183 344.045V349.805H855.65H867.116V379.564V409.323H874.761H882.405V379.564V349.805H892.916C903.236 349.805 903.427 349.805 903.427 344.045V338.285H873.805H844.183V344.045Z" fill="#0A2B52"/>
<path d="M926.36 372.268C918.525 390.699 911.836 406.827 911.454 407.595C911.071 408.555 913.747 409.323 917.378 409.323C923.685 409.323 924.449 408.555 927.507 400.683L930.756 392.043H947.191H963.626L967.066 400.683C970.315 408.555 971.271 409.323 977.386 409.323C981.017 409.323 983.693 408.555 983.311 407.595C983.12 406.635 976.24 390.507 968.404 372.076L954.071 338.285H947.382H940.693L926.36 372.268ZM953.306 368.044L958.466 380.524H947.191H935.916L939.929 370.348C942.222 364.972 944.324 359.213 944.898 357.869C946.618 353.645 948.338 355.565 953.306 368.044Z" fill="#0A2B52"/>
<path d="M1006.63 373.804V409.323H1013.31H1020V394.923V380.524H1037.2H1054.59L1053.83 375.148L1053.07 369.964H1036.63H1020V359.789V349.805H1039.11H1058.23V344.045V338.285H1032.43H1006.63V373.804Z" fill="#0A2B52"/>
<path d="M1081.16 373.804V409.323H1087.85H1094.54V394.923V380.524H1111.74H1128.94V375.148V369.964L1111.74 370.348L1094.54 370.732V360.173V349.805H1114.6H1134.67V344.045V338.285H1107.91H1081.16V373.804Z" fill="#0A2B52"/>
<path d="M1157.22 373.804L1156.65 409.323H1163.91H1170.98V373.804V338.285H1164.29H1157.79L1157.22 373.804Z" fill="#0A2B52"/>
<path d="M1197.74 373.804V409.323H1204.62H1211.3L1210.73 385.323C1210.35 372.076 1210.54 361.324 1211.11 361.324C1211.69 361.324 1220.29 372.076 1230.22 385.323C1246.85 407.019 1248.95 409.131 1254.69 409.323H1260.8V373.804V338.285H1254.11H1247.42V362.476V386.667L1229.08 362.476C1211.88 339.821 1210.16 338.285 1204.23 338.285H1197.74V373.804Z" fill="#0A2B52"/>
<path d="M1305.71 340.973C1298.64 344.237 1290.42 352.877 1287.75 359.98C1284.88 367.468 1285.07 383.212 1288.32 390.699C1291.57 398.571 1300.55 406.251 1309.72 409.322C1318.9 412.394 1334.76 410.666 1344.7 405.675L1352.53 401.643V386.475V371.308L1337.24 370.54L1321.96 369.964V375.148C1321.96 380.14 1322.53 380.524 1330.56 380.524H1339.16V388.011C1339.16 394.731 1338.58 395.691 1333.23 397.611C1319.47 402.411 1307.24 398.187 1301.89 387.051C1295.2 373.036 1300.74 355.949 1313.74 350.573C1320.62 347.501 1324.25 348.077 1339.16 354.221C1340.88 354.989 1343.36 353.645 1345.46 350.765C1348.9 345.965 1348.9 345.965 1342.6 342.125C1335.14 337.517 1314.69 336.941 1305.71 340.973Z" fill="#0A2B52"/>
<path d="M1428.6 341.357C1416.75 347.693 1414.64 364.972 1424.39 372.652C1427.26 374.764 1434.33 378.028 1440.63 379.756C1454.01 383.596 1458.98 388.011 1455.92 393.771C1454.59 395.883 1451.53 398.379 1448.85 398.955C1442.93 400.491 1430.32 397.035 1427.07 393.003C1424.77 390.315 1424.01 390.507 1420 394.155C1417.7 396.651 1415.6 398.955 1415.6 399.723C1415.6 402.411 1430.89 409.322 1439.11 410.474C1456.69 412.97 1469.11 404.139 1469.11 389.163C1469.11 378.796 1463.95 373.804 1448.28 369.004C1434.9 364.972 1430.89 362.284 1430.89 357.485C1430.89 349.229 1445.41 346.349 1454.97 352.493C1460.13 355.949 1462.23 355.373 1465.29 349.805C1469.87 341.165 1440.83 334.638 1428.6 341.357Z" fill="#0A2B52"/>
<path d="M1591.42 373.804V409.323H1616.26H1641.11V403.371V397.227L1622.95 398.187L1604.8 399.147V368.812V338.285H1598.11H1591.42V373.804Z" fill="#0A2B52"/>
<path d="M1660.6 366.892C1661.17 394.347 1661.37 395.883 1665.95 400.875C1679.9 416.042 1707.04 414.314 1716.6 397.803C1719.84 392.043 1720.61 387.051 1720.99 364.588L1721.76 338.285H1715.07H1708.38L1707.61 364.396C1707.04 390.315 1707.04 390.507 1701.69 395.115C1698.82 397.611 1694.24 399.723 1691.56 399.723C1685.45 399.723 1676.27 394.923 1674.74 391.083C1674.17 389.355 1673.6 376.684 1673.6 363.052V338.285H1666.72H1660.03L1660.6 366.892Z" fill="#0A2B52"/>
<path d="M1742.4 344.045C1742.4 349.613 1742.59 349.613 1754.05 350.189L1765.71 350.765L1765.52 379.948L1765.14 409.323H1772.02H1778.71V379.564V349.805H1790.17H1801.64V344.045V338.285H1772.02H1742.4V344.045Z" fill="#0A2B52"/>
<path d="M1824.57 373.804V409.323H1831.26H1837.95V373.804V338.285H1831.26H1824.57V373.804Z" fill="#0A2B52"/>
<path d="M1884.77 340.973C1877.7 344.237 1869.48 352.877 1866.81 359.981C1863.37 368.812 1864.32 383.788 1868.53 392.043C1879.61 413.93 1913.06 417.386 1929.49 398.763C1945.93 379.948 1939.43 350.765 1916.88 340.973C1909.04 337.518 1892.23 337.71 1884.77 340.973ZM1913.63 352.685C1920.89 357.485 1924.71 364.78 1924.71 374.572C1924.71 384.748 1920.32 392.811 1912.29 397.035C1884.96 411.051 1863.94 368.044 1890.12 351.533C1897 347.309 1905.99 347.693 1913.63 352.685Z" fill="#0A2B52"/>
<path d="M1964.08 373.804V409.323H1970.96H1977.65L1977.08 385.323C1976.7 372.076 1976.89 361.324 1977.46 361.324C1978.03 361.516 1986.63 372.268 1996.57 385.323C2013.2 407.403 2015.11 409.323 2020.84 409.323H2027.15V373.804V338.285H2020.27H2013.39L2014.15 362.284C2014.54 375.532 2014.34 386.283 2013.77 386.283C2013.2 386.091 2004.79 375.34 1994.85 362.284C1978.22 340.013 1976.5 338.285 1970.58 338.285H1964.08V373.804Z" fill="#0A2B52"/>
<path d="M786.85 462.504C772.517 467.688 769.459 489.959 781.881 498.599C790.29 504.551 811.312 499.367 805.77 492.647C804.05 490.343 803.095 490.535 799.655 492.839C793.921 496.871 790.099 496.487 785.321 491.303C774.428 479.592 786.277 463.272 800.228 470.76C802.712 472.104 804.241 471.912 805.961 469.8C809.974 465 795.259 459.432 786.85 462.504Z" fill="#0A2B52"/>
<path d="M825.837 464.808C813.033 472.68 813.415 492.263 826.41 499.175C847.623 510.694 866.161 477.48 845.521 465C837.877 460.2 833.29 460.2 825.837 464.808ZM843.992 471.336C845.139 472.872 846.668 476.712 847.241 479.976C848.197 484.775 847.432 486.887 843.61 490.727C837.303 497.063 832.143 497.063 827.175 490.727C822.397 484.583 822.015 479.016 826.219 473.064C829.468 468.264 840.361 467.112 843.992 471.336Z" fill="#0A2B52"/>
<path d="M1010.45 462.504C1005.1 464.424 999.173 471.144 998.026 476.712C995.159 489.575 1004.14 501.479 1016.56 501.479C1025.16 501.479 1032.43 496.487 1029.37 492.647C1027.65 490.343 1026.69 490.535 1023.25 492.839C1017.52 496.871 1013.7 496.487 1008.92 491.303C998.217 479.784 1010.07 463.272 1023.83 470.76C1026.31 472.104 1027.84 471.912 1029.56 469.8C1033.57 465 1018.86 459.432 1010.45 462.504Z" fill="#0A2B52"/>
<path d="M1159.51 463.272C1147.28 467.688 1144.42 488.231 1154.74 497.063C1160.66 502.247 1171.94 503.015 1178.24 498.407C1181.3 496.295 1182.45 493.607 1182.45 487.847C1182.45 480.36 1182.45 480.36 1174.8 480.36C1169.26 480.36 1167.16 481.128 1167.16 483.24C1167.16 484.967 1168.88 486.119 1171.94 486.119C1177.67 486.119 1178.43 490.919 1173.08 493.799C1167.54 496.679 1163.72 496.103 1159.51 491.879C1154.54 486.887 1154.54 476.328 1159.13 472.104C1163.14 468.456 1171.94 467.688 1173.85 470.76C1174.8 472.296 1175.95 472.104 1177.86 470.568C1181.68 467.496 1181.3 465.96 1175.76 463.464C1170.02 460.776 1166.2 460.776 1159.51 463.272Z" fill="#0A2B52"/>
<path d="M1518.99 466.152C1504.85 478.056 1512.3 501.479 1530.26 501.479C1538.29 501.479 1543.07 498.599 1546.51 491.879C1552.24 480.744 1548.99 469.032 1538.86 464.04C1530.07 460.008 1525.68 460.392 1518.99 466.152ZM1538.29 472.104C1545.74 478.824 1540.2 495.719 1530.26 495.719C1520.71 495.719 1514.98 479.976 1522.05 472.296C1525.87 468.072 1533.7 467.88 1538.29 472.104Z" fill="#0A2B52"/>
<path d="M1590.27 464.808C1583.39 469.032 1579.19 479.208 1581.1 486.887C1582.82 494.375 1592.38 501.479 1600.4 501.479C1619.9 501.479 1625.06 472.488 1607.28 463.272C1601.36 460.2 1597.15 460.584 1590.27 464.808ZM1606.14 470.376C1609.38 472.488 1612.44 481.704 1611.1 485.543C1607.28 496.295 1597.92 498.791 1591.61 490.727C1586.83 484.583 1586.45 479.016 1590.66 473.064C1593.52 468.84 1601.55 467.496 1606.14 470.376Z" fill="#0A2B52"/>
<path d="M1721.37 462.504C1716.02 464.424 1710.1 471.144 1708.95 476.712C1704.75 496.103 1726.92 509.542 1740.68 495.911C1755.2 481.32 1740.29 455.593 1721.37 462.504ZM1735.52 471.912C1743.16 479.4 1737.24 495.719 1727.11 495.719C1722.71 495.719 1715.64 486.887 1715.64 481.512C1715.64 470.76 1728.44 464.616 1735.52 471.912Z" fill="#0A2B52"/>
<path d="M867.116 482.472C867.116 499.751 867.498 501.671 870.556 501.095C873.232 500.519 873.805 498.407 873.614 488.423C873.614 481.896 873.996 476.52 874.569 476.52C875.143 476.52 879.921 482.28 885.08 488.999C898.076 506.471 899.605 505.703 899.605 482.28C899.605 465.192 899.223 463.08 896.165 463.08C893.489 463.08 892.916 464.424 893.489 471.528C895.018 489.575 893.871 490.151 883.552 475.944C877.818 468.264 872.658 463.08 870.556 463.08C867.498 463.08 867.116 465 867.116 482.472Z" fill="#0A2B52"/>
<path d="M912.982 482.28C912.982 500.135 913.174 501.479 916.805 501.479C920.053 501.479 920.436 499.943 921.009 488.423L921.582 475.56L931.138 488.423C936.489 495.527 942.222 501.287 944.133 501.479C947 501.479 947.382 499.367 947.382 482.28C947.382 464.424 947.191 463.08 943.56 463.08C940.12 463.08 939.738 464.424 939.738 475.752V488.615L930.182 475.752C924.067 467.688 919.098 463.08 916.805 463.08C913.174 463.08 912.982 464.424 912.982 482.28Z" fill="#0A2B52"/>
<path d="M960.76 482.28V501.479H974.137C986.177 501.479 987.515 501.095 987.515 497.639C987.515 494.183 986.177 493.799 977.004 493.799C967.066 493.799 966.493 493.607 966.493 488.999C966.493 484.583 967.066 484.199 976.048 484.199C983.311 484.199 985.604 483.431 985.604 481.32C985.604 479.208 983.311 478.44 976.048 478.44C967.831 478.44 966.493 477.864 966.493 474.6C966.493 471.144 967.831 470.76 977.004 470.76C986.177 470.76 987.515 470.376 987.515 466.92C987.515 463.464 986.177 463.08 974.137 463.08H960.76V482.28Z" fill="#0A2B52"/>
<path d="M1039.88 466.344C1040.26 468.648 1042.36 469.992 1046.38 470.376L1052.49 470.952V486.311C1052.49 498.599 1053.07 501.479 1055.36 501.479C1057.65 501.479 1058.23 498.407 1058.23 486.119V470.76H1064.91C1070.26 470.76 1071.6 469.992 1071.6 466.92C1071.6 463.464 1070.26 463.08 1055.55 463.08C1041.22 463.08 1039.5 463.464 1039.88 466.344Z" fill="#0A2B52"/>
<path d="M1081.16 482.28C1081.16 500.135 1081.35 501.479 1084.98 501.479C1088.61 501.479 1088.8 500.135 1088.8 482.28C1088.8 464.424 1088.61 463.08 1084.98 463.08C1081.35 463.08 1081.16 464.424 1081.16 482.28Z" fill="#0A2B52"/>
<path d="M1103.52 481.704C1103.71 496.871 1104.47 500.711 1106.77 501.095C1109.06 501.671 1109.82 499.175 1110.21 488.039L1110.78 474.408L1120.34 487.847C1125.88 495.719 1131.23 501.479 1133.33 501.479C1136.2 501.479 1136.58 499.367 1136.58 482.28C1136.58 464.424 1136.39 463.08 1132.76 463.08C1129.7 463.08 1129.13 464.616 1128.55 474.792L1127.98 486.503L1119.38 474.792C1114.03 467.496 1109.44 463.272 1106.96 463.08C1103.33 463.08 1103.14 464.232 1103.52 481.704Z" fill="#0A2B52"/>
<path d="M1213.02 466.92C1213.02 469.992 1214.36 470.76 1218.76 470.76H1224.49V486.119C1224.49 498.407 1225.06 501.479 1227.36 501.479C1229.65 501.479 1230.22 498.407 1230.22 486.119V470.76H1235.96C1240.35 470.76 1241.69 469.992 1241.69 466.92C1241.69 463.464 1240.35 463.08 1227.36 463.08C1214.36 463.08 1213.02 463.464 1213.02 466.92Z" fill="#0A2B52"/>
<path d="M1260.23 466.344C1259.85 468.264 1256.21 476.904 1252.58 485.543C1246.47 499.559 1246.09 501.479 1249.14 501.479C1251.05 501.479 1253.54 499.367 1254.69 496.679C1256.6 492.647 1258.13 491.879 1265.2 491.879C1272.27 491.879 1273.99 492.647 1275.71 496.679C1277.62 500.903 1283.93 503.591 1283.73 499.943C1283.54 499.175 1280.49 490.727 1276.47 481.32C1270.93 468.072 1268.45 463.848 1265.39 463.464C1262.71 463.08 1260.99 464.04 1260.23 466.344ZM1269.97 485.351C1269.21 485.927 1266.73 486.119 1264.05 485.735C1259.27 485.159 1259.27 485.159 1262.14 478.44L1265.01 471.72L1268.06 477.864C1269.59 481.32 1270.55 484.583 1269.97 485.351Z" fill="#0A2B52"/>
<path d="M1294.63 481.703L1294.82 500.519L1307.43 501.095C1319.09 501.671 1320.04 501.287 1320.04 497.639C1320.04 494.375 1318.9 493.799 1310.49 493.799H1300.93V478.44C1300.93 465 1300.55 463.08 1297.68 463.08C1294.63 463.08 1294.24 465.192 1294.63 481.703Z" fill="#0A2B52"/>
<path d="M1331.51 482.28V501.479H1344.89C1356.93 501.479 1358.27 501.095 1358.27 497.639C1358.27 494.183 1356.93 493.799 1347.76 493.799C1337.82 493.799 1337.24 493.607 1337.24 488.999C1337.24 484.583 1337.82 484.199 1346.8 484.199C1354.06 484.199 1356.36 483.431 1356.36 481.32C1356.36 479.208 1354.06 478.44 1346.8 478.44C1338.58 478.44 1337.24 477.864 1337.24 474.6C1337.24 471.144 1338.58 470.76 1347.76 470.76C1356.93 470.76 1358.27 470.376 1358.27 466.92C1358.27 463.464 1356.93 463.08 1344.89 463.08H1331.51V482.28Z" fill="#0A2B52"/>
<path d="M1369.73 482.28C1369.73 499.943 1370.12 501.479 1373.36 501.479C1376.8 501.479 1377 500.135 1376.8 488.999C1376.61 482.088 1377 476.52 1377.76 476.52C1378.33 476.52 1382.92 482.088 1387.89 488.999C1400.31 506.663 1402.22 505.895 1402.22 482.28C1402.22 466.536 1401.65 463.08 1399.36 463.08C1397.06 463.08 1396.49 465.576 1396.49 474.6C1396.49 480.936 1395.92 486.119 1395.15 486.119C1394.2 486.119 1389.8 480.936 1385.4 474.6C1380.24 467.496 1375.66 463.08 1373.36 463.08C1370.12 463.08 1369.73 464.616 1369.73 482.28Z" fill="#0A2B52"/>
<path d="M1414.07 466.344C1414.45 468.456 1416.75 469.992 1419.99 470.376C1425.15 470.952 1425.15 471.144 1425.15 486.311C1425.15 500.135 1425.54 501.479 1428.98 501.479C1432.42 501.479 1432.8 500.135 1432.8 486.119V470.76H1438.53C1442.93 470.76 1444.27 469.992 1444.27 466.92C1444.27 463.464 1442.93 463.08 1428.79 463.08C1415.22 463.08 1413.5 463.464 1414.07 466.344Z" fill="#0A2B52"/>
<path d="M1472.93 466.92C1472.93 469.992 1474.27 470.76 1478.67 470.76H1484.4V486.119C1484.4 500.135 1484.78 501.479 1488.22 501.479C1491.66 501.479 1492.04 500.135 1492.04 486.119V470.76H1497.78C1502.17 470.76 1503.51 469.992 1503.51 466.92C1503.51 463.464 1502.17 463.08 1488.22 463.08C1474.27 463.08 1472.93 463.464 1472.93 466.92Z" fill="#0A2B52"/>
<path d="M1631.55 482.28C1631.55 498.023 1632.13 501.479 1634.42 501.479C1636.33 501.479 1637.29 499.367 1637.29 494.759C1637.29 488.231 1637.48 488.039 1644.93 488.039C1653.91 488.039 1660.22 482.856 1660.22 475.56C1660.22 467.304 1653.91 463.08 1642.06 463.08H1631.55V482.28ZM1651.62 476.52C1651.62 480.744 1650.66 481.32 1644.55 481.896C1637.67 482.472 1637.29 482.28 1637.29 476.904C1637.29 469.8 1638.05 469.032 1645.5 470.568C1650.47 471.72 1651.62 472.872 1651.62 476.52Z" fill="#0A2B52"/>
<path d="M1671.69 480.36C1671.69 489.767 1671.69 498.215 1671.49 498.983C1671.49 499.943 1672.83 500.711 1674.36 501.095C1676.65 501.671 1677.42 500.135 1677.42 494.951C1677.42 488.231 1677.61 488.039 1684.87 488.039C1690.8 488.039 1693.28 486.887 1696.34 483.048C1704.94 472.104 1698.25 463.08 1681.81 463.08H1671.69V480.36ZM1691.94 473.64C1693.66 478.056 1689.08 482.28 1682.96 482.28C1677.99 482.28 1677.42 481.512 1677.42 476.52C1677.42 471.144 1677.99 470.76 1684.11 470.76C1688.5 470.76 1691.37 471.912 1691.94 473.64Z" fill="#0A2B52"/>
<path d="M1759.6 482.28C1759.6 500.519 1759.79 501.479 1763.61 501.479C1767.05 501.479 1767.43 500.519 1766.86 494.375C1765.9 482.856 1770.87 484.199 1781.19 498.407C1782.53 500.327 1785.2 501.671 1786.92 501.287C1789.79 500.519 1789.79 499.751 1785.59 493.607C1780.81 486.695 1780.81 486.503 1784.44 484.007C1790.17 479.784 1791.32 471.912 1786.54 467.112C1783.29 463.848 1780.04 463.08 1771.06 463.08H1759.6V482.28ZM1779.47 469.992C1787.31 473.064 1780.43 482.28 1770.3 482.28C1766.09 482.28 1765.33 481.32 1765.33 476.712C1765.33 472.296 1766.28 470.76 1769.72 470.184C1772.02 469.8 1774.5 469.224 1775.27 469.032C1775.84 469.032 1777.75 469.416 1779.47 469.992Z" fill="#0A2B52"/>
<path d="M1799.73 466.92C1799.73 469.992 1801.07 470.76 1805.46 470.76H1811.2V486.119C1811.2 498.407 1811.77 501.479 1814.06 501.479C1816.36 501.479 1816.93 498.599 1816.93 486.311V470.952L1823.04 470.376C1827.25 469.992 1829.54 468.648 1829.92 466.344C1830.5 463.464 1828.78 463.08 1815.21 463.08C1801.07 463.08 1799.73 463.464 1799.73 466.92Z" fill="#0A2B52"/>
<path d="M1839.86 477.288C1839.86 494.759 1843.87 501.479 1854.39 501.479C1867.76 501.479 1872.35 494.567 1872.35 474.408C1872.35 464.424 1871.97 463.08 1868.53 463.08C1865.28 463.08 1864.9 464.616 1864.32 477.864C1863.75 492.263 1863.56 492.839 1858.4 494.567C1849.8 497.639 1846.55 492.647 1846.55 476.52C1846.55 465 1845.98 463.08 1843.3 463.08C1840.24 463.08 1839.86 465 1839.86 477.288Z" fill="#0A2B52"/>
<path d="M1885.73 482.28C1885.73 498.023 1886.3 501.479 1888.59 501.479C1890.89 501.479 1891.46 498.599 1891.46 487.655V473.832L1901.59 487.655C1907.13 495.335 1913.06 501.287 1914.97 501.479C1917.83 501.479 1918.22 499.367 1918.22 482.28C1918.22 464.424 1918.02 463.08 1914.39 463.08C1910.95 463.08 1910.57 464.424 1910.57 475.944V488.999L1901.59 476.136C1896.43 468.84 1890.89 463.272 1889.17 463.08C1886.11 463.08 1885.73 465.192 1885.73 482.28Z" fill="#0A2B52"/>
<path d="M1931.59 482.472C1931.59 498.791 1931.98 501.671 1934.46 501.095C1936.94 500.711 1937.52 496.871 1937.9 481.704C1938.28 465.192 1937.9 463.08 1935.03 463.08C1931.98 463.08 1931.59 465.192 1931.59 482.472Z" fill="#0A2B52"/>
<path d="M1949.18 466.344C1949.56 468.648 1951.85 469.992 1956.25 470.376L1962.55 470.952L1961.79 486.311C1961.03 499.943 1961.22 501.479 1964.46 501.479C1967.52 501.479 1967.9 499.751 1967.9 486.119V470.76H1973.64C1978.03 470.76 1979.37 469.992 1979.37 466.92C1979.37 463.464 1978.03 463.08 1963.89 463.08C1950.32 463.08 1948.6 463.464 1949.18 466.344Z" fill="#0A2B52"/>
<path d="M1991.6 468.264C1993.13 471.336 1996.19 476.136 1998.29 479.4C2000.78 483.048 2002.3 488.231 2002.3 493.223C2002.3 500.135 2002.88 501.479 2006.13 501.479C2009.38 501.479 2009.95 500.135 2009.95 492.263C2009.95 484.967 2011.29 481.128 2016.64 473.064C2023.14 463.464 2023.33 463.08 2019.12 463.08C2016.06 463.08 2013.39 465.384 2010.14 471.144L2005.55 479.208L2000.97 471.144C1997.91 466.152 1994.85 463.08 1992.56 463.08C1989.12 463.08 1989.12 463.464 1991.6 468.264Z" fill="#0A2B52"/>
</svg>
