<svg width="48" height="48" viewBox="0 0 48 48" fill="none" xmlns="http://www.w3.org/2000/svg">
<path d="M45.9988 24C45.9988 21.2637 41.9088 18.8629 35.7548 17.4996C36.6561 15.1835 36.7253 13.3259 35.7512 12.3517C34.7771 11.3776 32.8801 11.448 30.5295 12.3768C29.171 6.14739 26.7547 2 23.9994 2C21.2441 2 18.8099 6.17723 17.4538 12.4449C15.0232 11.4504 13.0677 11.343 12.0602 12.3517C11.0813 13.3307 11.1553 15.2038 12.0721 17.5378C6.01357 18.9083 2 21.2888 2 24C2 26.7112 6.07803 29.1299 12.219 30.4957C11.166 32.9967 11.0311 35.0143 12.0602 36.0434C13.0797 37.063 15.0674 36.94 17.535 35.9157C18.9043 41.9816 21.2871 46 23.9994 46C26.7117 46 29.0755 42.0126 30.4483 35.9873C32.8371 36.9471 34.7556 37.0391 35.7512 36.0434C36.7755 35.0191 36.6466 33.0182 35.6091 30.5339C41.8456 29.1765 46 26.7578 46 24H45.9988Z" fill="white"/>
</svg>
