<svg width="2400" height="2400" viewBox="0 0 2400 2400" fill="none" xmlns="http://www.w3.org/2000/svg">
<rect width="2400" height="2400" fill="white"/>
<path d="M1155.86 667.773C1077.73 679.297 1008.98 716.797 960.742 774.219C882.227 867.969 866.211 998.047 919.727 1109.37C957.227 1187.11 1022.27 1244.73 1103.52 1271.87C1178.12 1296.87 1267.58 1290.43 1338.09 1254.88C1439.45 1204.1 1501.95 1109.37 1510.74 993.359C1514.65 940.43 1505.08 888.477 1482.42 839.844C1454.49 779.883 1399.41 724.609 1339.06 695.898C1283.98 669.727 1215.23 659.18 1155.86 667.773ZM1188.28 751.953V813.477L1174.22 812.305C1147.07 809.961 1129.1 807.227 1110.55 802.539C1100.39 799.805 1091.6 797.461 1091.21 796.875C1089.84 795.508 1098.44 779.883 1111.72 759.961C1134.77 725.391 1171.09 691.406 1185.94 690.43C1187.7 690.234 1188.28 703.711 1188.28 751.953ZM1234.77 699.805C1249.61 709.766 1269.53 731.445 1284.18 753.516C1298.05 774.023 1309.96 797.07 1307.62 798.437C1300.2 803.125 1216.02 815.039 1211.33 812.109C1210.35 811.523 1209.77 783.789 1209.77 750.391V689.648L1216.6 690.82C1220.12 691.406 1228.52 695.508 1234.77 699.805ZM1119.92 709.18C1108.01 722.656 1088.28 751.758 1076.95 772.656C1072.46 781.055 1067.58 787.891 1066.21 787.891C1057.62 787.891 1011.72 761.914 1013.09 757.812C1014.26 754.102 1043.75 733.984 1062.3 724.023C1076.76 716.406 1122.46 698.437 1128.32 698.242C1129.3 698.047 1125.39 703.125 1119.92 709.18ZM1332.62 720.508C1348.63 728.516 1378.91 748.633 1385.16 755.273L1389.84 760.156L1380.86 766.211C1372.07 772.266 1343.36 786.523 1335.74 788.672C1332.42 789.648 1330.86 787.695 1325.98 777.539C1319.14 763.477 1297.46 729.687 1283.79 712.305C1278.52 705.469 1274.22 699.609 1274.22 699.219C1274.22 697.266 1319.73 713.867 1332.62 720.508ZM1011.52 788.867C1022.27 794.727 1036.91 802.148 1044.14 805.078C1051.37 808.008 1057.42 811.133 1057.42 812.305C1057.42 813.281 1055.66 818.75 1053.71 824.219C1043.75 850 1037.11 887.891 1034.77 930.664L1033.4 955.273L1038.09 956.445C1048.24 959.18 1049.61 958.398 1049.61 949.414C1049.61 933.398 1053.91 905.859 1060.35 880.664C1066.8 855.469 1078.12 821.875 1080.66 820.312C1081.25 819.922 1090.62 821.484 1101.37 824.219C1111.91 826.758 1133.01 830.273 1148.05 832.031C1163.28 833.789 1178.52 835.547 1182.03 835.937L1188.28 836.914V859.18V881.641H1199.8H1211.13L1210.16 864.258C1208.79 838.281 1209.18 837.305 1223.83 835.742C1251.76 832.812 1278.12 828.32 1297.85 823.242L1318.95 817.773L1325.98 836.523C1338.28 868.164 1350.39 923.828 1350.39 948.047V955.859H1358.4H1366.6L1365.23 927.93C1364.45 912.695 1362.5 891.016 1360.94 879.687C1358.01 860.156 1349.02 827.93 1343.16 816.602C1340.43 811.133 1340.43 811.133 1348.83 807.812C1353.52 806.055 1369.14 798.828 1383.59 791.406L1409.96 778.32L1415.62 783.594C1423.63 791.016 1442.77 817.187 1452.34 833.594C1468.16 860.547 1484.77 910.547 1482.03 922.266C1477.34 941.406 1461.72 958.984 1440.23 969.336L1425.59 976.367H1373.83C1314.26 976.367 1314.84 976.367 1270.31 996.875C1234.57 1013.28 1229.1 1015.04 1205.66 1016.02C1179.88 1016.99 1164.65 1013.28 1129.88 996.875C1084.18 975.586 1087.89 976.367 1024.22 976.367C970.508 976.367 968.164 976.172 959.766 972.07C947.656 966.016 930.078 948.047 922.656 933.984L916.406 922.266L920.508 904.492C925.586 883.008 938.281 850.781 949.805 831.25C962.109 809.961 986.914 778.125 991.016 778.125C991.602 778.125 1000.98 783.008 1011.52 788.867ZM1486.52 991.406C1485.16 1017.58 1479.69 1044.92 1470.31 1073.05C1462.5 1096.68 1458.59 1102.54 1460.94 1087.7C1461.72 1082.23 1462.5 1059.18 1462.5 1036.52V994.922L1474.22 982.422C1480.86 975.586 1486.52 969.922 1486.91 969.727C1487.3 969.531 1487.11 979.492 1486.52 991.406ZM918.945 976.562C921.484 979.492 926.953 984.18 931.055 987.305L938.672 992.773L938.867 1043.75C939.062 1071.68 939.062 1094.53 938.867 1094.53C935.937 1094.53 921.68 1049.61 917.969 1028.91C914.453 1009.18 911.133 971.484 912.891 971.484C913.672 971.484 916.211 973.828 918.945 976.562ZM1080.27 1005.66C1122.07 1015.43 1153.12 1047.07 1167.19 1093.95C1174.61 1118.95 1174.41 1119.53 1164.45 1120.7C1130.08 1125 1119.14 1126.76 1105.27 1130.66C1096.68 1133.01 1088.28 1135.55 1086.52 1136.33C1083.79 1137.5 1082.23 1134.57 1077.15 1119.53C1069.92 1097.46 1062.3 1065.82 1059.37 1044.73C1055.66 1018.55 1056.25 1019.92 1048.05 1020.7C1041.41 1021.29 1040.82 1021.87 1040.23 1028.12C1038.48 1045.12 1052.34 1124.22 1060.35 1143.75C1061.33 1146.09 1060.94 1147.27 1058.98 1147.27C1057.42 1147.27 1042.19 1154.1 1025.39 1162.5L994.531 1177.73L990.039 1171.87C982.617 1161.72 979.687 1154.69 978.32 1142.38L977.148 1130.66L987.5 1141.99C997.461 1152.73 998.242 1153.32 1003.12 1151.17L1008.2 1148.83L999.414 1132.23C989.648 1114.06 983.203 1095.12 983.203 1084.77C983.203 1060.55 1002.54 1026.56 1026.17 1009.37C1034.57 1003.12 1035.74 1002.73 1051.56 1002.73C1060.74 1002.73 1073.63 1004.1 1080.27 1005.66ZM1383.59 1018.16C1400.98 1035.74 1411.13 1054.1 1415.04 1075C1416.99 1086.33 1416.8 1089.65 1413.28 1103.71C1411.13 1112.5 1406.25 1126.17 1402.54 1134.18L1395.7 1148.83L1400.59 1150.98C1404.88 1152.93 1406.05 1152.34 1415.23 1142.38C1420.7 1136.33 1425.59 1131.84 1425.98 1132.42C1427.73 1134.18 1414.26 1167.97 1409.96 1172.46L1405.47 1176.95L1385.35 1166.41C1374.22 1160.35 1359.18 1153.12 1351.76 1150C1341.99 1145.9 1338.87 1143.75 1339.84 1141.41C1344.14 1130.66 1352.34 1091.21 1355.08 1068.16C1360.94 1017.38 1361.13 1022.85 1354.1 1021.48C1343.75 1019.53 1342.58 1019.92 1342.58 1025.98C1342.58 1047.46 1321.87 1132.62 1316.02 1134.96C1314.65 1135.35 1307.62 1133.98 1300.2 1131.84C1292.97 1129.49 1276.37 1126.37 1263.48 1124.61C1250.59 1122.85 1237.11 1121.09 1233.59 1120.51C1227.15 1119.73 1226.95 1119.53 1228.32 1112.5C1233.59 1082.42 1246.48 1056.05 1264.45 1037.7C1288.28 1013.67 1313.67 1003.32 1351.17 1002.93L1368.55 1002.73L1383.59 1018.16ZM1183.01 1164.84C1184.96 1176.37 1186.91 1201.95 1187.7 1223.24L1188.87 1260.94L1184.18 1259.57C1169.92 1255.08 1147.85 1239.65 1132.62 1223.05C1119.73 1209.18 1108.01 1191.99 1097.66 1171.09L1090.62 1157.03L1095.31 1155.27C1113.28 1148.24 1141.21 1143.75 1161.91 1143.95L1179.49 1144.34L1183.01 1164.84ZM1258.98 1145.12C1275.39 1147.85 1300.78 1155.08 1304.88 1158.2C1308.2 1160.74 1308.01 1161.52 1300.78 1175C1281.05 1211.91 1246.09 1247.07 1216.99 1259.18L1209.77 1262.3L1210.74 1245.31C1211.33 1235.94 1212.11 1219.14 1212.7 1207.81C1213.48 1189.26 1217.97 1155.47 1220.7 1146.68C1221.48 1143.95 1224.02 1143.36 1234.77 1143.36C1241.99 1143.36 1252.93 1144.14 1258.98 1145.12ZM1077.54 1182.81C1089.45 1207.42 1104.49 1229.88 1117.19 1242.38C1123.05 1248.05 1127.34 1252.73 1126.95 1252.73C1121.87 1252.73 1086.13 1239.26 1072.07 1232.23C1056.25 1224.02 1030.66 1207.81 1018.36 1198.24C1013.48 1194.34 1013.48 1194.34 1017.38 1191.21C1020.51 1188.87 1066.8 1164.84 1068.36 1164.84C1068.55 1164.84 1072.66 1173.05 1077.54 1182.81ZM1354.69 1175.39C1365.04 1180.08 1376.76 1185.94 1380.66 1188.28L1388.09 1192.77L1381.45 1199.02C1364.45 1214.45 1320.51 1238.09 1290.43 1248.05C1267.38 1255.66 1262.89 1256.25 1271.29 1250.98C1285.74 1241.99 1304.3 1216.99 1320.7 1184.96C1326.17 1174.22 1331.05 1166.8 1332.81 1166.8C1334.37 1166.8 1344.14 1170.7 1354.69 1175.39Z" fill="#0A2B52"/>
<path d="M965.625 878.906C951.562 884.961 944.141 896.875 944.141 913.281C944.336 930.273 953.125 944.922 966.211 949.805C975.195 953.32 990.82 952.344 1000.2 947.852C1025.59 935.547 1024.61 892.187 998.437 878.516C991.602 875 974.219 875.195 965.625 878.906Z" fill="#0A2B52"/>
<path d="M1401.95 879.492C1381.64 888.672 1375 917.383 1388.67 936.914C1396.09 947.656 1405.08 951.953 1419.34 951.953C1431.45 951.953 1438.67 949.219 1445.51 941.797C1462.7 923.437 1457.62 889.844 1435.94 878.516C1428.52 874.609 1411.52 875.195 1401.95 879.492Z" fill="#0A2B52"/>
<path d="M1179.1 909.961C1166.21 916.406 1159.18 926.562 1157.62 940.82C1153.52 979.883 1186.13 1004.1 1219.73 986.914C1229.3 982.227 1240.63 968.555 1242.19 960.156C1246.29 938.867 1234.18 913.672 1216.99 907.227C1206.84 903.32 1190.04 904.687 1179.1 909.961Z" fill="#0A2B52"/>
<path d="M559.961 1365.82C545.703 1370.7 537.109 1378.12 530.859 1390.43C526.367 1400 525.781 1402.93 526.562 1414.84C528.32 1437.89 538.477 1448.63 571.68 1462.3C590.82 1470.12 601.562 1478.91 604.297 1489.26C612.5 1519.53 573.633 1538.09 548.242 1515.82C541.797 1510.16 530.078 1489.45 530.078 1483.79C530.078 1482.62 528.125 1481.64 525.977 1481.84C521.875 1482.03 521.875 1482.62 523.047 1502.73C524.219 1518.55 525.195 1523.83 527.734 1525.78C538.867 1534.18 575.195 1538.48 593.164 1533.2C621.484 1525 637.891 1499.41 631.641 1473.24C627.93 1457.81 616.602 1447.85 585.547 1432.23C551.953 1415.43 545.898 1406.25 555.469 1387.7C559.961 1378.91 569.141 1373.83 580.859 1373.83C597.07 1373.83 608.984 1383.59 615.234 1401.95C617.578 1408.4 619.336 1410.94 622.07 1410.94C625.781 1410.94 625.781 1409.96 624.609 1392.77C623.242 1371.29 621.875 1369.53 602.344 1365.23C584.961 1361.13 572.656 1361.33 559.961 1365.82Z" fill="#0A2B52"/>
<path d="M1043.36 1363.48C1038.67 1364.26 1037.3 1366.41 1030.86 1383.2C1026.95 1393.55 1018.16 1416.21 1011.52 1433.4C1004.88 1450.59 995.117 1475.78 990.039 1489.45C980.078 1516.21 974.609 1524.22 966.602 1524.22C962.695 1524.22 961.719 1525.2 961.719 1529.1V1533.98H988.281C1014.45 1533.98 1014.65 1533.98 1014.06 1529.69C1013.67 1526.56 1011.72 1525 1007.42 1524.02C994.922 1521.48 994.531 1519.34 1001.95 1494.34L1007.23 1477.34H1036.13H1064.84L1070.7 1493.36C1073.83 1502.34 1076.95 1511.52 1077.73 1513.67C1079.49 1519.34 1074.41 1524.22 1066.99 1524.22C1062.3 1524.22 1061.33 1525 1061.33 1529.1V1533.98H1094.34C1125.98 1533.98 1127.34 1533.79 1128.32 1529.88C1129.1 1527.34 1128.32 1525.59 1126.17 1525C1111.91 1520.51 1113.67 1524.02 1076.76 1428.91C1062.5 1392.19 1050.2 1362.3 1049.61 1362.3C1049.02 1362.5 1046.29 1363.09 1043.36 1363.48ZM1047.85 1433.79L1058.79 1462.7L1047.46 1463.28C1041.02 1463.67 1030.86 1463.67 1024.41 1463.28L1013.09 1462.7L1023.83 1433.79C1029.69 1417.97 1034.96 1405.08 1035.74 1405.08C1036.52 1405.08 1041.99 1417.97 1047.85 1433.79Z" fill="#0A2B52"/>
<path d="M862.695 1367.38C862.109 1369.34 859.18 1376.95 856.25 1384.57C853.32 1391.99 841.797 1421.88 830.859 1450.98C819.922 1479.88 809.57 1506.25 808.008 1509.57C803.516 1518.55 797.461 1524.22 792.383 1524.22C788.867 1524.22 787.891 1525.2 787.891 1529.1V1533.98H814.258H840.625V1529.1C840.625 1525.2 839.648 1524.22 835.547 1524.22C828.32 1524.22 823.047 1520.7 823.047 1515.82C823.047 1513.48 825.391 1503.91 828.125 1494.34L833.398 1477.34H861.914H890.43L896.875 1494.73C900.195 1504.1 903.125 1513.87 903.125 1516.02C903.125 1520.51 897.852 1524.22 891.602 1524.22C888.477 1524.22 887.5 1525.39 887.5 1529.1V1533.98H920.703H953.906V1529.3C953.906 1525.78 952.539 1524.41 948.242 1523.63C945.117 1523.05 940.82 1519.92 938.867 1516.99C935.547 1512.11 922.07 1479.3 887.305 1389.84L877.344 1364.06H870.703C866.016 1364.06 863.477 1365.04 862.695 1367.38ZM873.437 1433.98C879.102 1448.44 883.594 1460.94 883.594 1461.91C883.594 1462.89 873.437 1463.67 860.937 1463.67C840.039 1463.67 838.281 1463.48 839.648 1460.16C840.234 1458.4 844.727 1446.68 849.414 1434.38C860.937 1403.52 860.547 1404.69 862.109 1406.45C862.891 1407.23 867.969 1419.73 873.437 1433.98Z" fill="#0A2B52"/>
<path d="M650.586 1374.22C649.805 1378.91 648.828 1388.48 648.047 1395.7C646.875 1408.79 646.875 1408.98 651.562 1408.98C655.664 1408.98 656.836 1407.42 659.57 1398.63C664.648 1382.23 669.727 1378.91 689.453 1377.93L705.859 1377.34V1446.88C705.859 1513.87 705.664 1516.6 701.953 1520.31C699.805 1522.46 695.508 1524.22 692.187 1524.22C687.305 1524.22 686.328 1525 686.328 1529.1V1533.98H721.484H756.641V1529.1C756.641 1525 755.664 1524.22 750.781 1524.22C747.461 1524.22 743.164 1522.46 741.016 1520.31C737.305 1516.6 737.109 1513.87 737.109 1447.07V1377.73H750.781C759.18 1377.73 766.797 1378.91 770.117 1380.66C775.781 1383.59 781.25 1392.58 783.203 1402.93C784.18 1407.81 785.547 1408.98 789.453 1408.98C794.336 1408.98 794.336 1408.79 792.969 1397.07C792.383 1390.43 791.797 1380.66 791.797 1375.59V1366.02H721.68H651.562L650.586 1374.22Z" fill="#0A2B52"/>
<path d="M1145.31 1369.92C1145.31 1372.66 1147.46 1374.22 1153.12 1375.78C1166.99 1379.49 1166.8 1378.71 1166.8 1450.59V1514.65L1161.91 1519.34C1158.98 1522.46 1154.88 1524.22 1151.17 1524.22C1146.29 1524.22 1145.31 1525 1145.31 1529.1V1533.98H1180.66C1215.82 1533.98 1215.82 1533.98 1215.23 1529.69C1214.84 1526.76 1212.7 1525 1208.4 1523.83C1197.46 1521.09 1196.09 1516.8 1196.09 1486.72V1459.77H1201.17C1209.96 1459.77 1213.67 1463.48 1232.03 1491.6C1241.99 1506.84 1252.34 1521.29 1254.88 1523.63C1264.06 1532.03 1277.34 1535.35 1298.24 1534.37C1303.91 1533.98 1305.47 1533.2 1305.47 1530.27C1305.47 1527.54 1303.52 1526.17 1298.63 1525.39C1290.43 1523.83 1279.49 1511.72 1264.65 1487.7C1258.79 1478.32 1251.37 1466.6 1248.44 1461.91C1245.31 1457.23 1242.97 1453.32 1243.36 1453.12C1243.75 1452.93 1247.66 1451.17 1252.15 1449.22C1261.52 1445.12 1273.05 1433.79 1275.98 1425.98C1279.3 1416.99 1278.52 1400 1274.41 1391.8C1263.48 1370.51 1248.05 1366.02 1185.94 1366.02C1146.88 1366.02 1145.31 1366.21 1145.31 1369.92ZM1231.25 1382.03C1242.38 1389.65 1245.7 1395.9 1246.48 1410.55C1247.66 1435.55 1236.33 1447.66 1209.57 1449.61L1196.09 1450.59V1416.41C1196.09 1392.58 1196.88 1381.64 1198.44 1380.08C1199.8 1378.71 1206.05 1377.73 1212.89 1377.73C1222.07 1377.73 1226.37 1378.71 1231.25 1382.03Z" fill="#0A2B52"/>
<path d="M1321.48 1370.31C1321.88 1373.44 1323.83 1375 1328.71 1375.98C1341.99 1378.71 1341.6 1376.76 1342.19 1448.83C1342.77 1509.18 1342.38 1514.06 1339.26 1518.16C1337.3 1520.7 1332.62 1523.24 1328.91 1524.02C1323.83 1525 1321.88 1526.56 1321.48 1529.69L1320.9 1533.98H1381.45H1442.19L1443.16 1529.49C1443.75 1527.15 1445.12 1518.95 1446.09 1511.52C1447.27 1503.91 1448.83 1495.9 1449.41 1493.36C1450.2 1489.65 1449.61 1489.06 1445.31 1489.06C1441.99 1489.06 1440.23 1490.04 1440.23 1491.99C1440.23 1497.07 1433.2 1509.18 1426.56 1515.43C1421.09 1520.7 1418.95 1521.29 1404.88 1522.07C1386.91 1522.85 1381.05 1521.68 1375.78 1516.41C1372.07 1512.7 1371.88 1509.57 1371.88 1448.24C1371.88 1377.93 1371.68 1379.1 1383.2 1376.56C1392.58 1374.61 1393.36 1374.02 1393.36 1369.92C1393.36 1366.21 1392.19 1366.02 1357.03 1366.02H1320.9L1321.48 1370.31Z" fill="#0A2B52"/>
<path d="M1469.92 1370.31C1470.31 1373.44 1472.27 1375 1476.76 1375.98C1489.65 1378.52 1489.06 1375.39 1489.06 1450.2V1518.16L1484.77 1521.09C1482.42 1522.85 1477.93 1524.22 1475 1524.22C1470.51 1524.22 1469.53 1525 1469.53 1529.1V1533.98H1529.88H1590.43L1592.38 1523.63C1593.36 1518.16 1594.73 1509.96 1595.51 1505.66C1596.09 1501.37 1597.27 1495.9 1597.85 1493.36C1598.63 1489.84 1598.05 1489.06 1593.95 1489.06C1590.04 1489.06 1588.67 1490.23 1587.7 1494.73C1585.94 1502.73 1576.17 1515.62 1569.34 1519.34C1562.5 1522.66 1539.06 1523.44 1530.86 1520.31C1520.51 1516.21 1520.51 1516.41 1520.31 1447.46C1520.31 1386.13 1520.51 1383.4 1524.22 1379.69C1526.37 1377.54 1530.66 1375.78 1533.98 1375.78C1538.87 1375.78 1539.84 1375 1539.84 1370.9V1366.02H1504.49H1469.34L1469.92 1370.31Z" fill="#0A2B52"/>
<path d="M1616.02 1369.73C1616.02 1373.63 1619.53 1375.78 1625.78 1375.78C1627.73 1375.78 1631.25 1378.12 1633.4 1380.86C1637.3 1385.94 1637.5 1388.28 1637.5 1450.78C1637.5 1522.85 1637.7 1521.88 1624.61 1524.02C1618.75 1525 1616.8 1526.17 1616.41 1529.69L1615.82 1533.98H1677.93H1740.23L1743.55 1513.87C1747.66 1489.45 1747.66 1489.06 1743.55 1489.26C1741.21 1489.26 1737.89 1493.55 1734.18 1501.37C1725.59 1519.34 1719.92 1522.27 1695.7 1522.27C1677.73 1522.27 1675.98 1521.88 1671.68 1517.38C1666.99 1512.89 1666.8 1511.91 1666.8 1483.2V1453.91H1684.38C1704.69 1453.91 1710.35 1456.25 1713.67 1466.8C1715.23 1471.29 1717.19 1473.44 1719.73 1473.44C1723.44 1473.44 1723.63 1472.07 1723.24 1448.05C1723.05 1423.05 1723.05 1422.66 1718.55 1422.66C1715.04 1422.66 1713.87 1424.02 1712.89 1429.49C1710.94 1439.84 1705.86 1442.19 1684.96 1442.19H1666.8V1411.91C1666.8 1376.37 1665.82 1377.73 1690.63 1377.73C1711.72 1377.73 1718.55 1381.05 1725.98 1394.73C1733.98 1409.96 1737.11 1408.59 1737.11 1389.84C1737.11 1381.64 1736.52 1372.85 1735.94 1370.31L1734.77 1366.02H1675.39C1618.36 1366.02 1616.02 1366.21 1616.02 1369.73Z" fill="#0A2B52"/>
<path d="M1765.82 1367.38C1765.23 1368.36 1764.26 1377.93 1763.48 1388.87L1762.11 1408.98H1766.8C1770.7 1408.98 1771.88 1407.42 1773.83 1400C1775.39 1394.53 1778.91 1388.28 1782.81 1384.38C1789.26 1377.93 1790.04 1377.73 1804.88 1377.73H1820.12L1819.53 1447.46C1819.14 1515.82 1818.95 1517.38 1815.04 1520.7C1812.7 1522.66 1808.4 1524.22 1805.27 1524.22C1800.59 1524.22 1799.61 1525 1799.61 1529.1V1533.98H1835.94H1872.07L1871.48 1529.49C1871.09 1526.17 1869.34 1525 1864.65 1524.61C1860.74 1524.22 1856.84 1522.07 1854.3 1518.95C1850.59 1514.06 1850.39 1511.33 1850.39 1445.7V1377.34L1866.8 1377.93C1886.52 1378.91 1891.8 1382.42 1896.48 1398.63C1899.02 1407.62 1900.2 1408.98 1904.49 1408.98C1908.59 1408.98 1909.18 1408.4 1908.2 1404.49C1907.62 1402.15 1907.03 1392.58 1907.03 1383.01V1366.02H1836.91C1798.24 1366.02 1766.21 1366.6 1765.82 1367.38Z" fill="#0A2B52"/>
<path d="M1318.16 1594.34C1301.76 1598.44 1290.82 1609.96 1288.67 1626.17C1283.59 1662.5 1329.1 1683.01 1354.69 1655.86C1373.83 1635.16 1362.89 1601.17 1334.77 1594.73C1329.88 1593.55 1325.59 1592.77 1325 1592.77C1324.41 1592.97 1321.48 1593.55 1318.16 1594.34ZM1336.13 1608.2C1353.52 1618.75 1354.69 1643.16 1338.28 1653.12C1329.88 1658.2 1321.29 1658.01 1313.09 1652.54C1297.85 1642.38 1299.41 1615.62 1315.62 1607.62C1324.02 1603.32 1328.52 1603.52 1336.13 1608.2Z" fill="#0A2B52"/>
<path d="M569.922 1596.48C559.57 1600.59 553.711 1617.77 559.961 1625.98C563.086 1630.08 572.07 1634.57 582.812 1637.5C593.75 1640.43 596.484 1642.58 596.484 1648.44C596.484 1657.42 585.156 1659.37 571.68 1652.93C563.477 1649.02 562.891 1648.83 559.375 1652.15C553.906 1657.03 554.492 1658.4 563.281 1662.89C586.133 1674.61 610.156 1666.6 610.156 1647.27C610.156 1634.77 604.102 1629.88 581.445 1623.83C566.992 1620.12 567.969 1606.25 582.617 1606.25C586.523 1606.25 592.187 1607.62 595.312 1609.18C600.391 1611.91 601.367 1611.91 604.687 1608.98C609.766 1604.3 609.18 1602.93 600.391 1598.44C592.383 1594.34 577.539 1593.36 569.922 1596.48Z" fill="#0A2B52"/>
<path d="M625.781 1600.39V1606.25H637.5H649.219V1636.52V1666.8H657.031H664.844V1636.52V1606.25H675.586C686.133 1606.25 686.328 1606.25 686.328 1600.39V1594.53H656.055H625.781V1600.39Z" fill="#0A2B52"/>
<path d="M709.766 1629.1C701.758 1647.85 694.922 1664.26 694.531 1665.04C694.141 1666.02 696.875 1666.8 700.586 1666.8C707.031 1666.8 707.812 1666.02 710.937 1658.01L714.258 1649.22H731.055H747.852L751.367 1658.01C754.687 1666.02 755.664 1666.8 761.914 1666.8C765.625 1666.8 768.359 1666.02 767.969 1665.04C767.773 1664.06 760.742 1647.66 752.734 1628.91L738.086 1594.53H731.25H724.414L709.766 1629.1ZM737.305 1624.8L742.578 1637.5H731.055H719.531L723.633 1627.15C725.977 1621.68 728.125 1615.82 728.711 1614.45C730.469 1610.16 732.227 1612.11 737.305 1624.8Z" fill="#0A2B52"/>
<path d="M791.797 1630.66V1666.8H798.633H805.469V1652.15V1637.5H823.047H840.82L840.039 1632.03L839.258 1626.76H822.461H805.469V1616.41V1606.25H825H844.531V1600.39V1594.53H818.164H791.797V1630.66Z" fill="#0A2B52"/>
<path d="M867.969 1630.66V1666.8H874.805H881.641V1652.15V1637.5H899.219H916.797V1632.03V1626.76L899.219 1627.15L881.641 1627.54V1616.8V1606.25H902.148H922.656V1600.39V1594.53H895.312H867.969V1630.66Z" fill="#0A2B52"/>
<path d="M945.703 1630.66L945.117 1666.8H952.539H959.766V1630.66V1594.53H952.93H946.289L945.703 1630.66Z" fill="#0A2B52"/>
<path d="M987.109 1630.66V1666.8H994.141H1000.98L1000.39 1642.38C1000 1628.91 1000.2 1617.97 1000.78 1617.97C1001.37 1617.97 1010.16 1628.91 1020.31 1642.38C1037.3 1664.45 1039.45 1666.6 1045.31 1666.8H1051.56V1630.66V1594.53H1044.73H1037.89V1619.14V1643.75L1019.14 1619.14C1001.56 1596.09 999.805 1594.53 993.75 1594.53H987.109V1630.66Z" fill="#0A2B52"/>
<path d="M1097.46 1597.27C1090.23 1600.59 1081.84 1609.37 1079.1 1616.6C1076.17 1624.22 1076.37 1640.23 1079.69 1647.85C1083.01 1655.86 1092.19 1663.67 1101.56 1666.8C1110.94 1669.92 1127.15 1668.16 1137.3 1663.09L1145.31 1658.98V1643.55V1628.12L1129.69 1627.34L1114.06 1626.76V1632.03C1114.06 1637.11 1114.65 1637.5 1122.85 1637.5H1131.64V1645.12C1131.64 1651.95 1131.05 1652.93 1125.59 1654.88C1111.52 1659.77 1099.02 1655.47 1093.55 1644.14C1086.72 1629.88 1092.38 1612.5 1105.66 1607.03C1112.7 1603.91 1116.41 1604.49 1131.64 1610.74C1133.4 1611.52 1135.94 1610.16 1138.09 1607.23C1141.6 1602.34 1141.6 1602.34 1135.16 1598.44C1127.54 1593.75 1106.64 1593.16 1097.46 1597.27Z" fill="#0A2B52"/>
<path d="M1223.05 1597.66C1210.94 1604.1 1208.79 1621.68 1218.75 1629.49C1221.68 1631.64 1228.91 1634.96 1235.35 1636.72C1249.02 1640.62 1254.1 1645.12 1250.98 1650.98C1249.61 1653.12 1246.48 1655.66 1243.75 1656.25C1237.7 1657.81 1224.8 1654.3 1221.48 1650.2C1219.14 1647.46 1218.36 1647.66 1214.26 1651.37C1211.91 1653.91 1209.77 1656.25 1209.77 1657.03C1209.77 1659.77 1225.39 1666.8 1233.79 1667.97C1251.76 1670.51 1264.45 1661.52 1264.45 1646.29C1264.45 1635.74 1259.18 1630.66 1243.16 1625.78C1229.49 1621.68 1225.39 1618.95 1225.39 1614.06C1225.39 1605.66 1240.23 1602.73 1250 1608.98C1255.27 1612.5 1257.42 1611.91 1260.55 1606.25C1265.23 1597.46 1235.55 1590.82 1223.05 1597.66Z" fill="#0A2B52"/>
<path d="M1389.45 1630.66V1666.8H1414.84H1440.23V1660.74V1654.49L1421.68 1655.47L1403.12 1656.45V1625.59V1594.53H1396.29H1389.45V1630.66Z" fill="#0A2B52"/>
<path d="M1460.16 1623.63C1460.74 1651.56 1460.94 1653.12 1465.62 1658.2C1479.88 1673.63 1507.62 1671.87 1517.38 1655.08C1520.7 1649.22 1521.48 1644.14 1521.87 1621.29L1522.66 1594.53H1515.82H1508.98L1508.2 1621.09C1507.62 1647.46 1507.62 1647.66 1502.15 1652.34C1499.22 1654.88 1494.53 1657.03 1491.8 1657.03C1485.55 1657.03 1476.17 1652.15 1474.61 1648.24C1474.02 1646.48 1473.44 1633.59 1473.44 1619.73V1594.53H1466.41H1459.57L1460.16 1623.63Z" fill="#0A2B52"/>
<path d="M1543.75 1600.39C1543.75 1606.05 1543.95 1606.05 1555.66 1606.64L1567.58 1607.23L1567.38 1636.91L1566.99 1666.8H1574.02H1580.86V1636.52V1606.25H1592.58H1604.3V1600.39V1594.53H1574.02H1543.75V1600.39Z" fill="#0A2B52"/>
<path d="M1627.73 1630.66V1666.8H1634.57H1641.41V1630.66V1594.53H1634.57H1627.73V1630.66Z" fill="#0A2B52"/>
<path d="M1689.26 1597.27C1682.03 1600.59 1673.63 1609.38 1670.9 1616.6C1667.38 1625.59 1668.36 1640.82 1672.66 1649.22C1683.98 1671.48 1718.16 1675 1734.96 1656.05C1751.76 1636.91 1745.12 1607.23 1722.07 1597.27C1714.06 1593.75 1696.87 1593.95 1689.26 1597.27ZM1718.75 1609.18C1726.17 1614.06 1730.08 1621.48 1730.08 1631.45C1730.08 1641.8 1725.59 1650 1717.38 1654.3C1689.45 1668.55 1667.97 1624.8 1694.73 1608.01C1701.76 1603.71 1710.94 1604.1 1718.75 1609.18Z" fill="#0A2B52"/>
<path d="M1770.31 1630.66V1666.8H1777.34H1784.18L1783.59 1642.38C1783.2 1628.91 1783.4 1617.97 1783.98 1617.97C1784.57 1618.16 1793.36 1629.1 1803.52 1642.38C1820.51 1664.84 1822.46 1666.8 1828.32 1666.8H1834.77V1630.66V1594.53H1827.73H1820.7L1821.48 1618.95C1821.88 1632.42 1821.68 1643.36 1821.09 1643.36C1820.51 1643.16 1811.91 1632.23 1801.76 1618.95C1784.77 1596.29 1783.01 1594.53 1776.95 1594.53H1770.31V1630.66Z" fill="#0A2B52"/>
<path d="M567.187 1720.9C552.539 1726.17 549.414 1748.83 562.109 1757.62C570.703 1763.67 592.187 1758.4 586.523 1751.56C584.766 1749.22 583.789 1749.41 580.273 1751.76C574.414 1755.86 570.508 1755.47 565.625 1750.2C554.492 1738.28 566.602 1721.68 580.859 1729.3C583.398 1730.66 584.961 1730.47 586.719 1728.32C590.82 1723.44 575.781 1717.77 567.187 1720.9Z" fill="#0A2B52"/>
<path d="M607.031 1723.24C593.945 1731.25 594.336 1751.17 607.617 1758.2C629.297 1769.92 648.242 1736.13 627.148 1723.44C619.336 1718.55 614.648 1718.55 607.031 1723.24ZM625.586 1729.88C626.758 1731.45 628.32 1735.35 628.906 1738.67C629.883 1743.55 629.102 1745.7 625.195 1749.61C618.75 1756.05 613.477 1756.05 608.398 1749.61C603.516 1743.36 603.125 1737.7 607.422 1731.64C610.742 1726.76 621.875 1725.59 625.586 1729.88Z" fill="#0A2B52"/>
<path d="M795.703 1720.9C790.234 1722.85 784.18 1729.69 783.008 1735.35C780.078 1748.44 789.258 1760.55 801.953 1760.55C810.742 1760.55 818.164 1755.47 815.039 1751.56C813.281 1749.22 812.305 1749.41 808.789 1751.76C802.93 1755.86 799.023 1755.47 794.141 1750.2C783.203 1738.48 795.312 1721.68 809.375 1729.3C811.914 1730.66 813.477 1730.47 815.234 1728.32C819.336 1723.44 804.297 1717.77 795.703 1720.9Z" fill="#0A2B52"/>
<path d="M948.047 1721.68C935.547 1726.17 932.617 1747.07 943.164 1756.05C949.219 1761.33 960.742 1762.11 967.187 1757.42C970.312 1755.27 971.484 1752.54 971.484 1746.68C971.484 1739.06 971.484 1739.06 963.672 1739.06C958.008 1739.06 955.859 1739.84 955.859 1741.99C955.859 1743.75 957.617 1744.92 960.742 1744.92C966.602 1744.92 967.383 1749.8 961.914 1752.73C956.25 1755.66 952.344 1755.08 948.047 1750.78C942.969 1745.7 942.969 1734.96 947.656 1730.66C951.758 1726.95 960.742 1726.17 962.695 1729.3C963.672 1730.86 964.844 1730.66 966.797 1729.1C970.703 1725.98 970.312 1724.41 964.648 1721.88C958.789 1719.14 954.883 1719.14 948.047 1721.68Z" fill="#0A2B52"/>
<path d="M1315.43 1724.61C1300.98 1736.72 1308.59 1760.55 1326.95 1760.55C1335.16 1760.55 1340.04 1757.62 1343.55 1750.78C1349.41 1739.45 1346.09 1727.54 1335.74 1722.46C1326.76 1718.36 1322.27 1718.75 1315.43 1724.61ZM1335.16 1730.66C1342.77 1737.5 1337.11 1754.69 1326.95 1754.69C1317.19 1754.69 1311.33 1738.67 1318.55 1730.86C1322.46 1726.56 1330.47 1726.37 1335.16 1730.66Z" fill="#0A2B52"/>
<path d="M1388.28 1723.24C1381.25 1727.54 1376.95 1737.89 1378.91 1745.7C1380.66 1753.32 1390.43 1760.55 1398.63 1760.55C1418.55 1760.55 1423.83 1731.05 1405.66 1721.68C1399.61 1718.55 1395.31 1718.95 1388.28 1723.24ZM1404.49 1728.91C1407.81 1731.05 1410.94 1740.43 1409.57 1744.34C1405.66 1755.27 1396.09 1757.81 1389.65 1749.61C1384.77 1743.36 1384.37 1737.7 1388.67 1731.64C1391.6 1727.34 1399.8 1725.98 1404.49 1728.91Z" fill="#0A2B52"/>
<path d="M1522.27 1720.9C1516.8 1722.85 1510.74 1729.69 1509.57 1735.35C1505.27 1755.08 1527.93 1768.75 1541.99 1754.88C1556.84 1740.04 1541.6 1713.87 1522.27 1720.9ZM1536.72 1730.47C1544.53 1738.09 1538.48 1754.69 1528.12 1754.69C1523.63 1754.69 1516.41 1745.7 1516.41 1740.23C1516.41 1729.3 1529.49 1723.05 1536.72 1730.47Z" fill="#0A2B52"/>
<path d="M649.219 1741.21C649.219 1758.79 649.609 1760.74 652.734 1760.16C655.469 1759.57 656.055 1757.42 655.859 1747.27C655.859 1740.63 656.25 1735.16 656.836 1735.16C657.422 1735.16 662.305 1741.02 667.578 1747.85C680.859 1765.63 682.422 1764.84 682.422 1741.02C682.422 1723.63 682.031 1721.48 678.906 1721.48C676.172 1721.48 675.586 1722.85 676.172 1730.08C677.734 1748.44 676.562 1749.02 666.016 1734.57C660.156 1726.76 654.883 1721.48 652.734 1721.48C649.609 1721.48 649.219 1723.44 649.219 1741.21Z" fill="#0A2B52"/>
<path d="M696.094 1741.02C696.094 1759.18 696.289 1760.55 700 1760.55C703.32 1760.55 703.711 1758.98 704.297 1747.27L704.883 1734.18L714.648 1747.27C720.117 1754.49 725.977 1760.35 727.93 1760.55C730.859 1760.55 731.25 1758.4 731.25 1741.02C731.25 1722.85 731.055 1721.48 727.344 1721.48C723.828 1721.48 723.437 1722.85 723.437 1734.38V1747.46L713.672 1734.38C707.422 1726.17 702.344 1721.48 700 1721.48C696.289 1721.48 696.094 1722.85 696.094 1741.02Z" fill="#0A2B52"/>
<path d="M744.922 1741.02V1760.55H758.594C770.898 1760.55 772.266 1760.16 772.266 1756.64C772.266 1753.12 770.898 1752.73 761.523 1752.73C751.367 1752.73 750.781 1752.54 750.781 1747.85C750.781 1743.36 751.367 1742.97 760.547 1742.97C767.969 1742.97 770.312 1742.19 770.312 1740.04C770.312 1737.89 767.969 1737.11 760.547 1737.11C752.148 1737.11 750.781 1736.52 750.781 1733.2C750.781 1729.69 752.148 1729.3 761.523 1729.3C770.898 1729.3 772.266 1728.91 772.266 1725.39C772.266 1721.88 770.898 1721.48 758.594 1721.48H744.922V1741.02Z" fill="#0A2B52"/>
<path d="M825.781 1724.8C826.172 1727.15 828.32 1728.52 832.422 1728.91L838.672 1729.49V1745.12C838.672 1757.62 839.258 1760.55 841.602 1760.55C843.945 1760.55 844.531 1757.42 844.531 1744.92V1729.3H851.367C856.836 1729.3 858.203 1728.52 858.203 1725.39C858.203 1721.88 856.836 1721.48 841.797 1721.48C827.148 1721.48 825.391 1721.88 825.781 1724.8Z" fill="#0A2B52"/>
<path d="M867.969 1741.02C867.969 1759.18 868.164 1760.55 871.875 1760.55C875.586 1760.55 875.781 1759.18 875.781 1741.02C875.781 1722.85 875.586 1721.48 871.875 1721.48C868.164 1721.48 867.969 1722.85 867.969 1741.02Z" fill="#0A2B52"/>
<path d="M890.82 1740.43C891.016 1755.86 891.797 1759.77 894.141 1760.16C896.484 1760.74 897.266 1758.2 897.656 1746.88L898.242 1733.01L908.008 1746.68C913.672 1754.69 919.141 1760.55 921.289 1760.55C924.219 1760.55 924.609 1758.4 924.609 1741.02C924.609 1722.85 924.414 1721.48 920.703 1721.48C917.578 1721.48 916.992 1723.05 916.406 1733.4L915.82 1745.31L907.031 1733.4C901.562 1725.98 896.875 1721.68 894.336 1721.48C890.625 1721.48 890.43 1722.66 890.82 1740.43Z" fill="#0A2B52"/>
<path d="M1002.73 1725.39C1002.73 1728.52 1004.1 1729.3 1008.59 1729.3H1014.45V1744.92C1014.45 1757.42 1015.04 1760.55 1017.38 1760.55C1019.73 1760.55 1020.31 1757.42 1020.31 1744.92V1729.3H1026.17C1030.66 1729.3 1032.03 1728.52 1032.03 1725.39C1032.03 1721.88 1030.66 1721.48 1017.38 1721.48C1004.1 1721.48 1002.73 1721.88 1002.73 1725.39Z" fill="#0A2B52"/>
<path d="M1050.98 1724.8C1050.59 1726.76 1046.88 1735.55 1043.16 1744.34C1036.91 1758.59 1036.52 1760.55 1039.65 1760.55C1041.6 1760.55 1044.14 1758.4 1045.31 1755.66C1047.27 1751.56 1048.83 1750.78 1056.05 1750.78C1063.28 1750.78 1065.04 1751.56 1066.8 1755.66C1068.75 1759.96 1075.2 1762.7 1075 1758.98C1074.8 1758.2 1071.68 1749.61 1067.58 1740.04C1061.91 1726.56 1059.38 1722.27 1056.25 1721.88C1053.52 1721.48 1051.76 1722.46 1050.98 1724.8ZM1060.94 1744.14C1060.16 1744.73 1057.62 1744.92 1054.88 1744.53C1050 1743.95 1050 1743.95 1052.93 1737.11L1055.86 1730.27L1058.98 1736.52C1060.55 1740.04 1061.52 1743.36 1060.94 1744.14Z" fill="#0A2B52"/>
<path d="M1086.13 1740.43L1086.33 1759.57L1099.22 1760.16C1111.13 1760.74 1112.11 1760.35 1112.11 1756.64C1112.11 1753.32 1110.94 1752.73 1102.34 1752.73H1092.58V1737.11C1092.58 1723.44 1092.19 1721.48 1089.26 1721.48C1086.13 1721.48 1085.74 1723.63 1086.13 1740.43Z" fill="#0A2B52"/>
<path d="M1123.83 1741.02V1760.55H1137.5C1149.8 1760.55 1151.17 1760.16 1151.17 1756.64C1151.17 1753.12 1149.8 1752.73 1140.43 1752.73C1130.27 1752.73 1129.69 1752.54 1129.69 1747.85C1129.69 1743.36 1130.27 1742.97 1139.45 1742.97C1146.88 1742.97 1149.22 1742.19 1149.22 1740.04C1149.22 1737.89 1146.88 1737.11 1139.45 1737.11C1131.05 1737.11 1129.69 1736.52 1129.69 1733.2C1129.69 1729.69 1131.05 1729.3 1140.43 1729.3C1149.8 1729.3 1151.17 1728.91 1151.17 1725.39C1151.17 1721.88 1149.8 1721.48 1137.5 1721.48H1123.83V1741.02Z" fill="#0A2B52"/>
<path d="M1162.89 1741.02C1162.89 1758.98 1163.28 1760.55 1166.6 1760.55C1170.12 1760.55 1170.31 1759.18 1170.12 1747.85C1169.92 1740.82 1170.31 1735.16 1171.09 1735.16C1171.68 1735.16 1176.37 1740.82 1181.45 1747.85C1194.14 1765.82 1196.09 1765.04 1196.09 1741.02C1196.09 1725 1195.51 1721.48 1193.16 1721.48C1190.82 1721.48 1190.23 1724.02 1190.23 1733.2C1190.23 1739.65 1189.65 1744.92 1188.87 1744.92C1187.89 1744.92 1183.4 1739.65 1178.91 1733.2C1173.63 1725.98 1168.95 1721.48 1166.6 1721.48C1163.28 1721.48 1162.89 1723.05 1162.89 1741.02Z" fill="#0A2B52"/>
<path d="M1208.2 1724.8C1208.59 1726.95 1210.94 1728.52 1214.26 1728.91C1219.53 1729.49 1219.53 1729.69 1219.53 1745.12C1219.53 1759.18 1219.92 1760.55 1223.44 1760.55C1226.95 1760.55 1227.34 1759.18 1227.34 1744.92V1729.3H1233.2C1237.7 1729.3 1239.06 1728.52 1239.06 1725.39C1239.06 1721.88 1237.7 1721.48 1223.24 1721.48C1209.38 1721.48 1207.62 1721.88 1208.2 1724.8Z" fill="#0A2B52"/>
<path d="M1268.36 1725.39C1268.36 1728.52 1269.73 1729.3 1274.22 1729.3H1280.08V1744.92C1280.08 1759.18 1280.47 1760.55 1283.98 1760.55C1287.5 1760.55 1287.89 1759.18 1287.89 1744.92V1729.3H1293.75C1298.24 1729.3 1299.61 1728.52 1299.61 1725.39C1299.61 1721.88 1298.24 1721.48 1283.98 1721.48C1269.73 1721.48 1268.36 1721.88 1268.36 1725.39Z" fill="#0A2B52"/>
<path d="M1430.47 1741.02C1430.47 1757.03 1431.05 1760.55 1433.4 1760.55C1435.35 1760.55 1436.33 1758.4 1436.33 1753.71C1436.33 1747.07 1436.52 1746.88 1444.14 1746.88C1453.32 1746.88 1459.77 1741.6 1459.77 1734.18C1459.77 1725.78 1453.32 1721.48 1441.21 1721.48H1430.47V1741.02ZM1450.98 1735.16C1450.98 1739.45 1450 1740.04 1443.75 1740.62C1436.72 1741.21 1436.33 1741.02 1436.33 1735.55C1436.33 1728.32 1437.11 1727.54 1444.73 1729.1C1449.8 1730.27 1450.98 1731.45 1450.98 1735.16Z" fill="#0A2B52"/>
<path d="M1471.48 1739.06C1471.48 1748.63 1471.48 1757.23 1471.29 1758.01C1471.29 1758.98 1472.66 1759.77 1474.22 1760.16C1476.56 1760.74 1477.34 1759.18 1477.34 1753.91C1477.34 1747.07 1477.54 1746.88 1484.96 1746.88C1491.02 1746.88 1493.55 1745.7 1496.68 1741.8C1505.47 1730.66 1498.63 1721.48 1481.84 1721.48H1471.48V1739.06ZM1492.19 1732.23C1493.95 1736.72 1489.26 1741.02 1483.01 1741.02C1477.93 1741.02 1477.34 1740.23 1477.34 1735.16C1477.34 1729.69 1477.93 1729.3 1484.18 1729.3C1488.67 1729.3 1491.6 1730.47 1492.19 1732.23Z" fill="#0A2B52"/>
<path d="M1561.33 1741.02C1561.33 1759.57 1561.52 1760.55 1565.43 1760.55C1568.95 1760.55 1569.34 1759.57 1568.75 1753.32C1567.77 1741.6 1572.85 1742.97 1583.4 1757.42C1584.77 1759.38 1587.5 1760.74 1589.26 1760.35C1592.19 1759.57 1592.19 1758.79 1587.89 1752.54C1583.01 1745.51 1583.01 1745.31 1586.72 1742.77C1592.58 1738.48 1593.75 1730.47 1588.87 1725.59C1585.55 1722.27 1582.23 1721.48 1573.05 1721.48H1561.33V1741.02ZM1581.64 1728.52C1589.65 1731.64 1582.62 1741.02 1572.27 1741.02C1567.97 1741.02 1567.19 1740.04 1567.19 1735.35C1567.19 1730.86 1568.16 1729.3 1571.68 1728.71C1574.02 1728.32 1576.56 1727.73 1577.34 1727.54C1577.93 1727.54 1579.88 1727.93 1581.64 1728.52Z" fill="#0A2B52"/>
<path d="M1602.34 1725.39C1602.34 1728.52 1603.71 1729.3 1608.2 1729.3H1614.06V1744.92C1614.06 1757.42 1614.65 1760.55 1616.99 1760.55C1619.34 1760.55 1619.92 1757.62 1619.92 1745.12V1729.49L1626.17 1728.91C1630.47 1728.52 1632.81 1727.15 1633.2 1724.8C1633.79 1721.88 1632.03 1721.48 1618.16 1721.48C1603.71 1721.48 1602.34 1721.88 1602.34 1725.39Z" fill="#0A2B52"/>
<path d="M1643.36 1735.94C1643.36 1753.71 1647.46 1760.55 1658.2 1760.55C1671.87 1760.55 1676.56 1753.52 1676.56 1733.01C1676.56 1722.85 1676.17 1721.48 1672.66 1721.48C1669.34 1721.48 1668.95 1723.05 1668.36 1736.52C1667.77 1751.17 1667.58 1751.76 1662.3 1753.52C1653.52 1756.64 1650.2 1751.56 1650.2 1735.16C1650.2 1723.44 1649.61 1721.48 1646.87 1721.48C1643.75 1721.48 1643.36 1723.44 1643.36 1735.94Z" fill="#0A2B52"/>
<path d="M1690.23 1741.02C1690.23 1757.03 1690.82 1760.55 1693.16 1760.55C1695.51 1760.55 1696.09 1757.62 1696.09 1746.48V1732.42L1706.45 1746.48C1712.11 1754.3 1718.16 1760.35 1720.12 1760.55C1723.05 1760.55 1723.44 1758.4 1723.44 1741.02C1723.44 1722.85 1723.24 1721.48 1719.53 1721.48C1716.02 1721.48 1715.62 1722.85 1715.62 1734.57V1747.85L1706.45 1734.77C1701.17 1727.34 1695.51 1721.68 1693.75 1721.48C1690.62 1721.48 1690.23 1723.63 1690.23 1741.02Z" fill="#0A2B52"/>
<path d="M1737.11 1741.21C1737.11 1757.81 1737.5 1760.74 1740.04 1760.16C1742.58 1759.77 1743.16 1755.86 1743.55 1740.43C1743.95 1723.63 1743.55 1721.48 1740.62 1721.48C1737.5 1721.48 1737.11 1723.63 1737.11 1741.21Z" fill="#0A2B52"/>
<path d="M1755.08 1724.8C1755.47 1727.15 1757.81 1728.52 1762.3 1728.91L1768.75 1729.49L1767.97 1745.12C1767.19 1758.98 1767.38 1760.55 1770.7 1760.55C1773.83 1760.55 1774.22 1758.79 1774.22 1744.92V1729.3H1780.08C1784.57 1729.3 1785.94 1728.52 1785.94 1725.39C1785.94 1721.88 1784.57 1721.48 1770.12 1721.48C1756.25 1721.48 1754.49 1721.88 1755.08 1724.8Z" fill="#0A2B52"/>
<path d="M1798.44 1726.76C1800 1729.88 1803.12 1734.77 1805.27 1738.09C1807.81 1741.8 1809.37 1747.07 1809.37 1752.15C1809.37 1759.18 1809.96 1760.55 1813.28 1760.55C1816.6 1760.55 1817.19 1759.18 1817.19 1751.17C1817.19 1743.75 1818.55 1739.84 1824.02 1731.64C1830.66 1721.88 1830.86 1721.48 1826.56 1721.48C1823.44 1721.48 1820.7 1723.83 1817.38 1729.69L1812.7 1737.89L1808.01 1729.69C1804.88 1724.61 1801.76 1721.48 1799.41 1721.48C1795.9 1721.48 1795.9 1721.88 1798.44 1726.76Z" fill="#0A2B52"/>
</svg>
